<svg xmlns="http://www.w3.org/2000/svg" xmlns:xlink="http://www.w3.org/1999/xlink" id="processonSvg1000" viewBox="176.25 27.0 439.75 440.0" width="439.75" height="440.0"><defs id="ProcessOnDefs1001"/><g id="ProcessOnG1002"><path id="ProcessOnPath1003" d="M176.25 27.0H616.0V467.0H176.25V27.0Z" fill="none"/><g id="ProcessOnG1004"><g id="ProcessOnG1005" transform="matrix(1.0,0.0,0.0,1.0,201.81066460587328,47.0)" opacity="1.0"><g id="ProcessOnG1007" transform="matrix(5.255857805255022,0.0,0.0,5.333333333333333,0.0,0.0)"> <g id="Layer_1"> <circle fill="#9D5025" cx="37.44" cy="39.038" r="35.962"/> <rect x="1.479" y="35.962" fill="#9D5025" width="72.043" height="2.958"/> <circle fill="#F58536" cx="37.44" cy="35.962" r="35.962"/> <path fill="#FFFFFF" d="M10.352,39.629v-0.946c0-3.548,2.72-8.162,6.624-9.937c0.354-7.689,6.743-13.841,14.551-13.841 c5.204,0,10.055,2.839,12.539,7.216c0.947-0.473,2.13-0.71,3.194-0.71c4.022,0,7.217,2.839,7.926,6.625 c5.441,1.065,9.346,6.27,9.346,10.646v0.829c0,5.323-5.561,10.055-11.829,10.055h-30.64C15.793,49.566,10.352,44.952,10.352,39.629 z"/> <g> <path fill="#F58536" d="M44.894,25.907l-2.247,1.538l-1.183-2.484c-1.774-3.785-5.679-6.388-9.938-6.388 c-2.958,0-5.679,1.183-7.689,3.194c-2.012,2.01-3.194,4.731-3.194,7.689v2.011l-1.656,0.473c-2.721,0.828-4.968,4.377-4.968,6.743 v0.829c0,2.957,3.549,6.269,8.044,6.269h30.757c4.614,0,8.044-3.431,8.044-6.269v-0.829c0-2.957-3.312-6.86-7.098-7.097 l-2.012-0.119l-0.117-2.129c-0.118-2.366-2.012-4.141-4.377-4.141C46.431,25.197,45.604,25.434,44.894,25.907z"/> </g> </g>  </g></g><g id="ProcessOnG1008" transform="matrix(1.0,0.0,0.0,1.0,196.25,176.7805642633229)" opacity="1.0"><path id="ProcessOnPath1009" d="M0.0 0.0L395.42503863987633 0.0L395.42503863987633 100.31347962382443L0.0 100.31347962382443Z" stroke="none" stroke-width="0.0" stroke-dasharray="none" opacity="1.0" fill="none"/><g id="ProcessOnG1010" transform="matrix(1.0,0.0,0.0,1.0,0.0,-6.093260188087783)"><text id="ProcessOnText1011" fill="#ffffff" font-size="90" x="196.71251931993817" y="92.25" font-family="微软雅黑" font-weight="bold" font-style="normal" text-decoration="none" family="微软雅黑" text-anchor="middle" size="90">Gu</text></g></g></g></g></svg>