<?xml version="1.0" encoding="utf-8"?>
<!-- Generator: Adobe Illustrator 21.1.0, SVG Export Plug-In . SVG Version: 6.00 Build 0)  -->
<svg version="1.1" id="Layer_1" xmlns="http://www.w3.org/2000/svg" xmlns:xlink="http://www.w3.org/1999/xlink" x="0px" y="0px"
	 viewBox="0 0 750 646" style="enable-background:new 0 0 750 646;" xml:space="preserve">
<style type="text/css">
	.st0{fill:#FFFFFF;stroke:#878A8F;stroke-width:2;stroke-miterlimit:10;}
	.st1{fill:none;stroke:#939598;stroke-width:2;stroke-linecap:round;stroke-miterlimit:10;stroke-dasharray:2.0037,8.0149;}
	.st2{enable-background:new    ;}
	.st3{fill:#231F20;}
	.st4{fill:#F2BD1A;}
	.st5{fill:#40BEB0;}
	.st6{fill:#38A595;}
	.st7{fill:#FFFFFF;stroke:#EEBF1C;stroke-width:2;stroke-miterlimit:10;}
	.st8{fill:#FFFFFF;stroke:#E9478B;stroke-width:2;stroke-miterlimit:10;}
	.st9{fill:none;stroke:#939598;stroke-width:2;stroke-linecap:round;stroke-miterlimit:10;}
	.st10{clip-path:url(#SVGID_2_);fill:#EEBF1C;}
	.st11{clip-path:url(#SVGID_4_);fill:#40BEB0;}
	.st12{clip-path:url(#SVGID_6_);fill:#0EA5DE;}
	.st13{clip-path:url(#SVGID_8_);fill:#231F20;}
	.st14{fill:#D7A229;}
	.st15{fill:#009B8F;}
	.st16{fill:#FFFFFF;stroke:#939598;stroke-width:2;stroke-linecap:round;stroke-miterlimit:10;}
	.st17{fill:#1DBAB0;}
	.st18{fill:#12A5DF;}
	.st19{fill:#0078A0;}
	.st20{fill:#E9478B;}
	.st21{fill:#FFFFFF;stroke:#00BFB3;stroke-width:2;stroke-miterlimit:10;}
	.st22{fill:none;stroke:#12A5DF;stroke-width:3.573;stroke-linecap:round;stroke-linejoin:round;stroke-miterlimit:10;}
	.st23{fill:none;stroke:#1DBAB0;stroke-width:3.573;stroke-linecap:round;stroke-linejoin:round;stroke-miterlimit:10;}
	.st24{fill:#343741;}
	.st25{fill:none;stroke:#343741;stroke-width:2;stroke-miterlimit:10;}
	.st26{fill:none;}
</style>
<path class="st0" d="M274.7,261.3H48.9c-2,0-3.6-1.6-3.6-3.6V121.1c0-2,1.6-3.6,3.6-3.6h225.8c2,0,3.6,1.6,3.6,3.6v136.5
	C278.3,259.6,276.8,261.3,274.7,261.3z"/>
<g>
	<g>
		<path class="st1" d="M383.8,624.7H9.9c-3.3,0-6-2.7-6-6v-524c0-3.3,2.7-6,6-6h373.9c3.3,0,6,2.7,6,6v524
			C389.8,622,387.1,624.7,383.8,624.7z"/>
	</g>
</g>
<g>
	<g>
		<g class="st2">
			<path class="st3" d="M146.9,169.7v-12.8h2.1v11h5.4v1.8H146.9z"/>
			<path class="st3" d="M165,164.8c0,1.6-0.4,2.8-1.2,3.7s-1.9,1.3-3.4,1.3c-0.9,0-1.7-0.2-2.4-0.6s-1.2-1-1.6-1.8s-0.6-1.7-0.6-2.7
				c0-1.6,0.4-2.8,1.2-3.7s1.9-1.3,3.4-1.3c1.4,0,2.5,0.5,3.3,1.4S165,163.3,165,164.8z M157.9,164.8c0,2.2,0.8,3.4,2.5,3.4
				c1.6,0,2.5-1.1,2.5-3.4c0-2.2-0.8-3.3-2.5-3.3c-0.9,0-1.5,0.3-1.9,0.9S157.9,163.8,157.9,164.8z"/>
			<path class="st3" d="M175.6,160v1.1l-1.7,0.3c0.2,0.2,0.3,0.5,0.4,0.8s0.1,0.6,0.1,0.9c0,1-0.3,1.8-1,2.4s-1.6,0.9-2.9,0.9
				c-0.3,0-0.6,0-0.8-0.1c-0.4,0.3-0.7,0.6-0.7,1c0,0.2,0.1,0.4,0.3,0.5s0.6,0.2,1.1,0.2h1.7c1.1,0,1.9,0.2,2.4,0.7s0.8,1.1,0.8,2
				c0,1.1-0.5,2-1.4,2.5s-2.2,0.9-3.9,0.9c-1.3,0-2.3-0.2-3-0.7s-1-1.1-1-2c0-0.6,0.2-1.1,0.6-1.5s0.9-0.7,1.6-0.8
				c-0.3-0.1-0.5-0.3-0.7-0.6s-0.3-0.5-0.3-0.8c0-0.4,0.1-0.7,0.3-0.9s0.5-0.5,0.9-0.7c-0.5-0.2-0.9-0.6-1.2-1.1s-0.5-1.1-0.5-1.7
				c0-1.1,0.3-1.9,1-2.5s1.6-0.9,2.8-0.9c0.3,0,0.6,0,0.9,0.1s0.5,0.1,0.7,0.1H175.6z M168,171.2c0,0.4,0.2,0.8,0.6,1s1,0.4,1.7,0.4
				c1.1,0,2-0.2,2.5-0.5s0.8-0.8,0.8-1.3c0-0.4-0.2-0.7-0.5-0.9s-0.9-0.3-1.7-0.3h-1.6c-0.6,0-1.1,0.1-1.4,0.4S168,170.8,168,171.2z
				 M168.8,163.1c0,0.6,0.2,1.1,0.5,1.4s0.8,0.5,1.3,0.5c1.2,0,1.8-0.6,1.8-1.9c0-0.6-0.1-1.1-0.4-1.5s-0.7-0.5-1.3-0.5
				c-0.6,0-1.1,0.2-1.4,0.5S168.8,162.5,168.8,163.1z"/>
			<path class="st3" d="M183.9,166.9c0,0.9-0.3,1.7-1,2.2s-1.7,0.8-3,0.8c-1.3,0-2.3-0.2-3.1-0.6v-1.8c1.1,0.5,2.2,0.8,3.2,0.8
				c1.3,0,1.9-0.4,1.9-1.2c0-0.2-0.1-0.5-0.2-0.6s-0.4-0.3-0.7-0.5s-0.8-0.4-1.3-0.6c-1.1-0.4-1.9-0.9-2.3-1.3s-0.6-1-0.6-1.7
				c0-0.8,0.3-1.5,1-1.9s1.6-0.7,2.7-0.7c1.1,0,2.2,0.2,3.2,0.7l-0.7,1.6c-1-0.4-1.9-0.7-2.6-0.7c-1.1,0-1.6,0.3-1.6,0.9
				c0,0.3,0.1,0.6,0.4,0.8s0.9,0.5,1.9,0.9c0.8,0.3,1.4,0.6,1.7,0.9s0.6,0.6,0.8,0.9S183.9,166.5,183.9,166.9z"/>
			<path class="st3" d="M189.8,168.2c0.5,0,1-0.1,1.5-0.2v1.6c-0.2,0.1-0.5,0.2-0.9,0.3s-0.7,0.1-1.1,0.1c-2,0-2.9-1-2.9-3.1v-5.2
				H185v-0.9l1.4-0.8l0.7-2.1h1.3v2.2h2.8v1.6h-2.8v5.2c0,0.5,0.1,0.9,0.4,1.1S189.4,168.2,189.8,168.2z"/>
			<path class="st3" d="M199.3,169.7l-0.4-1.4h-0.1c-0.5,0.6-0.9,1-1.4,1.2s-1.1,0.3-1.8,0.3c-1,0-1.7-0.3-2.2-0.8s-0.8-1.2-0.8-2.2
				c0-1,0.4-1.8,1.1-2.3s1.9-0.8,3.4-0.8l1.7-0.1v-0.5c0-0.6-0.1-1.1-0.4-1.4s-0.7-0.5-1.3-0.5c-0.5,0-1,0.1-1.4,0.2
				s-0.9,0.3-1.3,0.5l-0.7-1.5c0.5-0.3,1.1-0.5,1.7-0.6s1.2-0.2,1.8-0.2c1.2,0,2.2,0.3,2.8,0.8s0.9,1.4,0.9,2.5v6.5H199.3z
				 M196.2,168.3c0.8,0,1.4-0.2,1.8-0.6s0.7-1,0.7-1.8v-0.8l-1.2,0.1c-1,0-1.7,0.2-2.1,0.5s-0.7,0.7-0.7,1.3c0,0.4,0.1,0.8,0.4,1
				S195.7,168.3,196.2,168.3z"/>
			<path class="st3" d="M210.2,166.9c0,0.9-0.3,1.7-1,2.2s-1.7,0.8-3,0.8c-1.3,0-2.3-0.2-3.1-0.6v-1.8c1.1,0.5,2.2,0.8,3.2,0.8
				c1.3,0,1.9-0.4,1.9-1.2c0-0.2-0.1-0.5-0.2-0.6s-0.4-0.3-0.7-0.5s-0.8-0.4-1.3-0.6c-1.1-0.4-1.9-0.9-2.3-1.3s-0.6-1-0.6-1.7
				c0-0.8,0.3-1.5,1-1.9s1.6-0.7,2.7-0.7c1.1,0,2.2,0.2,3.2,0.7l-0.7,1.6c-1-0.4-1.9-0.7-2.6-0.7c-1.1,0-1.6,0.3-1.6,0.9
				c0,0.3,0.1,0.6,0.4,0.8s0.9,0.5,1.9,0.9c0.8,0.3,1.4,0.6,1.7,0.9s0.6,0.6,0.8,0.9S210.2,166.5,210.2,166.9z"/>
			<path class="st3" d="M221,169.7h-2.1v-6c0-0.8-0.2-1.3-0.5-1.7s-0.8-0.6-1.4-0.6c-0.9,0-1.5,0.3-1.9,0.8s-0.6,1.4-0.6,2.6v4.8
				h-2.1V156h2.1v3.5c0,0.6,0,1.2-0.1,1.8h0.1c0.3-0.5,0.7-0.8,1.2-1.1s1.1-0.4,1.8-0.4c2.4,0,3.5,1.2,3.5,3.6V169.7z"/>
		</g>
	</g>
	<g>
		<path class="st4" d="M114.4,161.5H95.6v-21.6h7.7c6.1,0,11.1,4.9,11.1,11.1V161.5z"/>
		<path class="st3" d="M114.4,180.3h-7.7c-6.1,0-11.1-4.9-11.1-11.1v-7.7h18.8L114.4,180.3L114.4,180.3z"/>
		<rect x="114.4" y="161.5" class="st5" width="17.2" height="18.8"/>
		<rect x="114.4" y="161.5" class="st6" width="4" height="18.8"/>
	</g>
</g>
<g>
	<g>
		<path class="st7" d="M194.1,239h-55.2c-1.8,0-3.2-1.4-3.2-3.2V222c0-1.8,1.4-3.2,3.2-3.2h55.2c1.8,0,3.2,1.4,3.2,3.2v13.7
			C197.3,237.5,195.9,239,194.1,239z"/>
		<circle class="st7" cx="144.5" cy="228.9" r="3.3"/>
		<circle class="st7" cx="156.2" cy="228.9" r="3.3"/>
	</g>
	<g>
		<path class="st7" d="M189.1,234h-55.2c-1.8,0-3.2-1.4-3.2-3.2V217c0-1.8,1.4-3.2,3.2-3.2h55.2c1.8,0,3.2,1.4,3.2,3.2v13.7
			C192.3,232.5,190.8,234,189.1,234z"/>
		<circle class="st7" cx="139.5" cy="223.9" r="3.3"/>
		<circle class="st7" cx="151.2" cy="223.9" r="3.3"/>
	</g>
	<g>
		<path class="st7" d="M184.1,229h-55.2c-1.8,0-3.2-1.4-3.2-3.2V212c0-1.8,1.4-3.2,3.2-3.2h55.2c1.8,0,3.2,1.4,3.2,3.2v13.7
			C187.3,227.6,185.9,229,184.1,229z"/>
		<circle class="st7" cx="134.5" cy="218.9" r="3.3"/>
		<circle class="st7" cx="146.2" cy="218.9" r="3.3"/>
	</g>
</g>
<path class="st0" d="M274.7,426.8H48.9c-2,0-3.6-1.6-3.6-3.6V286.7c0-2,1.6-3.6,3.6-3.6h225.8c2,0,3.6,1.6,3.6,3.6v136.5
	C278.3,425.2,276.8,426.8,274.7,426.8z"/>
<path class="st0" d="M663.7,408.6H437.8c-2,0-3.6-1.6-3.6-3.6V268.5c0-2,1.6-3.6,3.6-3.6h225.8c2,0,3.6,1.6,3.6,3.6V405
	C667.3,407,665.7,408.6,663.7,408.6z"/>
<path class="st0" d="M663.8,244.8H437.9c-2,0-3.6-1.6-3.6-3.6v-74c0-2,1.6-3.6,3.6-3.6h225.8c2,0,3.6,1.6,3.6,3.6v74
	C667.4,243.2,665.8,244.8,663.8,244.8z"/>
<path class="st0" d="M663.7,570.3H437.8c-2,0-3.6-1.6-3.6-3.6V430.2c0-2,1.6-3.6,3.6-3.6h225.8c2,0,3.6,1.6,3.6,3.6v136.5
	C667.3,568.7,665.7,570.3,663.7,570.3z"/>
<path class="st0" d="M274.7,592.4H48.9c-2,0-3.6-1.6-3.6-3.6V452.3c0-2,1.6-3.6,3.6-3.6h225.8c2,0,3.6,1.6,3.6,3.6v136.5
	C278.3,590.8,276.8,592.4,274.7,592.4z"/>
<g>
	<g>
		<g class="st2">
			<path class="st3" d="M146.9,338v-12.8h2.1v11h5.4v1.8H146.9z"/>
			<path class="st3" d="M165,333.1c0,1.6-0.4,2.8-1.2,3.7s-1.9,1.3-3.4,1.3c-0.9,0-1.7-0.2-2.4-0.6s-1.2-1-1.6-1.8s-0.6-1.7-0.6-2.7
				c0-1.6,0.4-2.8,1.2-3.7s1.9-1.3,3.4-1.3c1.4,0,2.5,0.5,3.3,1.4C164.6,330.4,165,331.6,165,333.1z M157.9,333.1
				c0,2.2,0.8,3.4,2.5,3.4c1.6,0,2.5-1.1,2.5-3.4c0-2.2-0.8-3.3-2.5-3.3c-0.9,0-1.5,0.3-1.9,0.9S157.9,332,157.9,333.1z"/>
			<path class="st3" d="M175.6,328.3v1.1l-1.7,0.3c0.2,0.2,0.3,0.5,0.4,0.8s0.1,0.6,0.1,0.9c0,1-0.3,1.8-1,2.4s-1.6,0.9-2.9,0.9
				c-0.3,0-0.6,0-0.8-0.1c-0.4,0.3-0.7,0.6-0.7,1c0,0.2,0.1,0.4,0.3,0.5s0.6,0.2,1.1,0.2h1.7c1.1,0,1.9,0.2,2.4,0.7s0.8,1.1,0.8,2
				c0,1.1-0.5,2-1.4,2.5s-2.2,0.9-3.9,0.9c-1.3,0-2.3-0.2-3-0.7s-1-1.1-1-2c0-0.6,0.2-1.1,0.6-1.5c0.4-0.4,0.9-0.7,1.6-0.8
				c-0.3-0.1-0.5-0.3-0.7-0.6s-0.3-0.5-0.3-0.8c0-0.4,0.1-0.7,0.3-0.9s0.5-0.5,0.9-0.7c-0.5-0.2-0.9-0.6-1.2-1.1s-0.5-1.1-0.5-1.7
				c0-1.1,0.3-1.9,1-2.5s1.6-0.9,2.8-0.9c0.3,0,0.6,0,0.9,0.1c0.3,0,0.5,0.1,0.7,0.1H175.6z M168,339.5c0,0.4,0.2,0.8,0.6,1
				s1,0.4,1.7,0.4c1.1,0,2-0.2,2.5-0.5s0.8-0.8,0.8-1.3c0-0.4-0.2-0.7-0.5-0.9s-0.9-0.3-1.7-0.3h-1.6c-0.6,0-1.1,0.1-1.4,0.4
				C168.1,338.7,168,339,168,339.5z M168.8,331.4c0,0.6,0.2,1.1,0.5,1.4s0.8,0.5,1.3,0.5c1.2,0,1.8-0.6,1.8-1.9
				c0-0.6-0.1-1.1-0.4-1.5c-0.3-0.3-0.7-0.5-1.3-0.5c-0.6,0-1.1,0.2-1.4,0.5S168.8,330.8,168.8,331.4z"/>
			<path class="st3" d="M183.9,335.2c0,0.9-0.3,1.7-1,2.2s-1.7,0.8-3,0.8c-1.3,0-2.3-0.2-3.1-0.6v-1.8c1.1,0.5,2.2,0.8,3.2,0.8
				c1.3,0,1.9-0.4,1.9-1.2c0-0.2-0.1-0.5-0.2-0.6s-0.4-0.3-0.7-0.5s-0.8-0.4-1.3-0.6c-1.1-0.4-1.9-0.9-2.3-1.3s-0.6-1-0.6-1.7
				c0-0.8,0.3-1.5,1-1.9c0.7-0.5,1.6-0.7,2.7-0.7c1.1,0,2.2,0.2,3.2,0.7l-0.7,1.6c-1-0.4-1.9-0.7-2.6-0.7c-1.1,0-1.6,0.3-1.6,0.9
				c0,0.3,0.1,0.6,0.4,0.8s0.9,0.5,1.9,0.9c0.8,0.3,1.4,0.6,1.7,0.9s0.6,0.6,0.8,0.9S183.9,334.8,183.9,335.2z"/>
			<path class="st3" d="M189.8,336.5c0.5,0,1-0.1,1.5-0.2v1.6c-0.2,0.1-0.5,0.2-0.9,0.2s-0.7,0.1-1.1,0.1c-2,0-2.9-1-2.9-3.1v-5.2
				H185v-0.9l1.4-0.8l0.7-2.1h1.3v2.2h2.8v1.6h-2.8v5.2c0,0.5,0.1,0.9,0.4,1.1C189,336.4,189.4,336.5,189.8,336.5z"/>
			<path class="st3" d="M199.3,338l-0.4-1.4h-0.1c-0.5,0.6-0.9,1-1.4,1.2c-0.5,0.2-1.1,0.3-1.8,0.3c-1,0-1.7-0.3-2.2-0.8
				s-0.8-1.2-0.8-2.2c0-1,0.4-1.8,1.1-2.3s1.9-0.8,3.4-0.8l1.7-0.1v-0.5c0-0.6-0.1-1.1-0.4-1.4c-0.3-0.3-0.7-0.5-1.3-0.5
				c-0.5,0-1,0.1-1.4,0.2s-0.9,0.3-1.3,0.5l-0.7-1.5c0.5-0.3,1.1-0.5,1.7-0.6c0.6-0.1,1.2-0.2,1.8-0.2c1.2,0,2.2,0.3,2.8,0.8
				s0.9,1.4,0.9,2.5v6.5H199.3z M196.2,336.6c0.8,0,1.4-0.2,1.8-0.6c0.5-0.4,0.7-1,0.7-1.8v-0.8l-1.2,0.1c-1,0-1.7,0.2-2.1,0.5
				c-0.4,0.3-0.7,0.7-0.7,1.3c0,0.4,0.1,0.8,0.4,1C195.3,336.5,195.7,336.6,196.2,336.6z"/>
			<path class="st3" d="M210.2,335.2c0,0.9-0.3,1.7-1,2.2s-1.7,0.8-3,0.8c-1.3,0-2.3-0.2-3.1-0.6v-1.8c1.1,0.5,2.2,0.8,3.2,0.8
				c1.3,0,1.9-0.4,1.9-1.2c0-0.2-0.1-0.5-0.2-0.6s-0.4-0.3-0.7-0.5s-0.8-0.4-1.3-0.6c-1.1-0.4-1.9-0.9-2.3-1.3s-0.6-1-0.6-1.7
				c0-0.8,0.3-1.5,1-1.9c0.7-0.5,1.6-0.7,2.7-0.7c1.1,0,2.2,0.2,3.2,0.7l-0.7,1.6c-1-0.4-1.9-0.7-2.6-0.7c-1.1,0-1.6,0.3-1.6,0.9
				c0,0.3,0.1,0.6,0.4,0.8s0.9,0.5,1.9,0.9c0.8,0.3,1.4,0.6,1.7,0.9s0.6,0.6,0.8,0.9S210.2,334.8,210.2,335.2z"/>
			<path class="st3" d="M221,338h-2.1v-6c0-0.8-0.2-1.3-0.5-1.7s-0.8-0.6-1.4-0.6c-0.9,0-1.5,0.3-1.9,0.8c-0.4,0.5-0.6,1.4-0.6,2.6
				v4.8h-2.1v-13.7h2.1v3.5c0,0.6,0,1.2-0.1,1.8h0.1c0.3-0.5,0.7-0.8,1.2-1.1s1.1-0.4,1.8-0.4c2.4,0,3.5,1.2,3.5,3.6V338z"/>
		</g>
	</g>
	<g>
		<path class="st4" d="M114.4,329.8H95.6v-21.6h7.7c6.1,0,11.1,4.9,11.1,11.1V329.8z"/>
		<path class="st3" d="M114.4,348.6h-7.7c-6.1,0-11.1-4.9-11.1-11.1v-7.7h18.8L114.4,348.6L114.4,348.6z"/>
		<rect x="114.4" y="329.8" class="st5" width="17.2" height="18.8"/>
		<rect x="114.4" y="329.8" class="st6" width="4" height="18.8"/>
	</g>
</g>
<g>
	<g>
		<path class="st7" d="M194.1,407.3h-55.2c-1.8,0-3.2-1.4-3.2-3.2v-13.7c0-1.8,1.4-3.2,3.2-3.2h55.2c1.8,0,3.2,1.4,3.2,3.2V404
			C197.3,405.8,195.9,407.3,194.1,407.3z"/>
		<circle class="st7" cx="144.5" cy="397.2" r="3.3"/>
		<circle class="st7" cx="156.2" cy="397.2" r="3.3"/>
	</g>
	<g>
		<path class="st7" d="M189.1,402.2h-55.2c-1.8,0-3.2-1.4-3.2-3.2v-13.7c0-1.8,1.4-3.2,3.2-3.2h55.2c1.8,0,3.2,1.4,3.2,3.2V399
			C192.3,400.8,190.8,402.2,189.1,402.2z"/>
		<circle class="st7" cx="139.5" cy="392.2" r="3.3"/>
		<circle class="st7" cx="151.2" cy="392.2" r="3.3"/>
	</g>
	<g>
		<path class="st7" d="M184.1,397.3h-55.2c-1.8,0-3.2-1.4-3.2-3.2v-13.7c0-1.8,1.4-3.2,3.2-3.2h55.2c1.8,0,3.2,1.4,3.2,3.2v13.7
			C187.3,395.9,185.9,397.3,184.1,397.3z"/>
		<circle class="st7" cx="134.5" cy="387.1" r="3.3"/>
		<circle class="st7" cx="146.2" cy="387.1" r="3.3"/>
	</g>
</g>
<g>
	<g>
		<path class="st8" d="M579.8,386.8h-55.2c-1.8,0-3.2-1.4-3.2-3.2v-13.7c0-1.8,1.4-3.2,3.2-3.2h55.2c1.8,0,3.2,1.4,3.2,3.2v13.7
			C583.1,385.4,581.6,386.8,579.8,386.8z"/>
		<circle class="st8" cx="530.3" cy="376.8" r="3.3"/>
		<circle class="st8" cx="541.9" cy="376.8" r="3.3"/>
	</g>
	<g>
		<path class="st8" d="M574.9,381.8h-55.2c-1.8,0-3.2-1.4-3.2-3.2v-13.7c0-1.8,1.4-3.2,3.2-3.2h55.2c1.8,0,3.2,1.4,3.2,3.2v13.7
			C578,380.3,576.6,381.8,574.9,381.8z"/>
		<circle class="st8" cx="525.2" cy="371.7" r="3.3"/>
		<circle class="st8" cx="536.9" cy="371.7" r="3.3"/>
	</g>
	<g>
		<path class="st8" d="M569.9,376.8h-55.2c-1.8,0-3.2-1.4-3.2-3.2v-13.7c0-1.8,1.4-3.2,3.2-3.2h55.2c1.8,0,3.2,1.4,3.2,3.2v13.7
			C573.1,375.4,571.7,376.8,569.9,376.8z"/>
		<circle class="st8" cx="520.2" cy="366.7" r="3.3"/>
		<circle class="st8" cx="532" cy="366.7" r="3.3"/>
	</g>
</g>
<g>
	<g>
		<g class="st2">
			<path class="st3" d="M146.9,504v-12.8h2.1v11h5.4v1.8H146.9z"/>
			<path class="st3" d="M165,499.2c0,1.6-0.4,2.8-1.2,3.7s-1.9,1.3-3.4,1.3c-0.9,0-1.7-0.2-2.4-0.6s-1.2-1-1.6-1.8s-0.6-1.7-0.6-2.7
				c0-1.6,0.4-2.8,1.2-3.7s1.9-1.3,3.4-1.3c1.4,0,2.5,0.5,3.3,1.4C164.6,496.4,165,497.6,165,499.2z M157.9,499.2
				c0,2.2,0.8,3.4,2.5,3.4c1.6,0,2.5-1.1,2.5-3.4c0-2.2-0.8-3.3-2.5-3.3c-0.9,0-1.5,0.3-1.9,0.9S157.9,498.1,157.9,499.2z"/>
			<path class="st3" d="M175.6,494.3v1.1l-1.7,0.3c0.2,0.2,0.3,0.5,0.4,0.8s0.1,0.6,0.1,0.9c0,1-0.3,1.8-1,2.4s-1.6,0.9-2.9,0.9
				c-0.3,0-0.6,0-0.8-0.1c-0.4,0.3-0.7,0.6-0.7,1c0,0.2,0.1,0.4,0.3,0.5s0.6,0.2,1.1,0.2h1.7c1.1,0,1.9,0.2,2.4,0.7s0.8,1.1,0.8,2
				c0,1.1-0.5,2-1.4,2.5s-2.2,0.9-3.9,0.9c-1.3,0-2.3-0.2-3-0.7s-1-1.1-1-2c0-0.6,0.2-1.1,0.6-1.5c0.4-0.4,0.9-0.7,1.6-0.8
				c-0.3-0.1-0.5-0.3-0.7-0.6s-0.3-0.5-0.3-0.8c0-0.4,0.1-0.7,0.3-0.9s0.5-0.5,0.9-0.7c-0.5-0.2-0.9-0.6-1.2-1.1s-0.5-1.1-0.5-1.7
				c0-1.1,0.3-1.9,1-2.5s1.6-0.9,2.8-0.9c0.3,0,0.6,0,0.9,0.1c0.3,0,0.5,0.1,0.7,0.1H175.6z M168,505.5c0,0.4,0.2,0.8,0.6,1
				s1,0.4,1.7,0.4c1.1,0,2-0.2,2.5-0.5s0.8-0.8,0.8-1.3c0-0.4-0.2-0.7-0.5-0.9s-0.9-0.3-1.7-0.3h-1.6c-0.6,0-1.1,0.1-1.4,0.4
				C168.1,504.7,168,505.1,168,505.5z M168.8,497.5c0,0.6,0.2,1.1,0.5,1.4s0.8,0.5,1.3,0.5c1.2,0,1.8-0.6,1.8-1.9
				c0-0.6-0.1-1.1-0.4-1.5c-0.3-0.3-0.7-0.5-1.3-0.5c-0.6,0-1.1,0.2-1.4,0.5S168.8,496.8,168.8,497.5z"/>
			<path class="st3" d="M183.9,501.3c0,0.9-0.3,1.7-1,2.2s-1.7,0.8-3,0.8c-1.3,0-2.3-0.2-3.1-0.6v-1.8c1.1,0.5,2.2,0.8,3.2,0.8
				c1.3,0,1.9-0.4,1.9-1.2c0-0.2-0.1-0.5-0.2-0.6s-0.4-0.3-0.7-0.5s-0.8-0.4-1.3-0.6c-1.1-0.4-1.9-0.9-2.3-1.3s-0.6-1-0.6-1.7
				c0-0.8,0.3-1.5,1-1.9c0.7-0.5,1.6-0.7,2.7-0.7c1.1,0,2.2,0.2,3.2,0.7l-0.7,1.6c-1-0.4-1.9-0.7-2.6-0.7c-1.1,0-1.6,0.3-1.6,0.9
				c0,0.3,0.1,0.6,0.4,0.8s0.9,0.5,1.9,0.9c0.8,0.3,1.4,0.6,1.7,0.9s0.6,0.6,0.8,0.9S183.9,500.8,183.9,501.3z"/>
			<path class="st3" d="M189.8,502.5c0.5,0,1-0.1,1.5-0.2v1.6c-0.2,0.1-0.5,0.2-0.9,0.2s-0.7,0.1-1.1,0.1c-2,0-2.9-1-2.9-3.1v-5.2
				H185V495l1.4-0.8l0.7-2.1h1.3v2.2h2.8v1.6h-2.8v5.2c0,0.5,0.1,0.9,0.4,1.1C189,502.4,189.4,502.5,189.8,502.5z"/>
			<path class="st3" d="M199.3,504l-0.4-1.4h-0.1c-0.5,0.6-0.9,1-1.4,1.2c-0.5,0.2-1.1,0.3-1.8,0.3c-1,0-1.7-0.3-2.2-0.8
				s-0.8-1.2-0.8-2.2c0-1,0.4-1.8,1.1-2.3s1.9-0.8,3.4-0.8l1.7-0.1v-0.5c0-0.6-0.1-1.1-0.4-1.4c-0.3-0.3-0.7-0.5-1.3-0.5
				c-0.5,0-1,0.1-1.4,0.2s-0.9,0.3-1.3,0.5l-0.7-1.5c0.5-0.3,1.1-0.5,1.7-0.6c0.6-0.1,1.2-0.2,1.8-0.2c1.2,0,2.2,0.3,2.8,0.8
				s0.9,1.4,0.9,2.5v6.5H199.3z M196.2,502.6c0.8,0,1.4-0.2,1.8-0.6c0.5-0.4,0.7-1,0.7-1.8v-0.8l-1.2,0.1c-1,0-1.7,0.2-2.1,0.5
				c-0.4,0.3-0.7,0.7-0.7,1.3c0,0.4,0.1,0.8,0.4,1C195.3,502.5,195.7,502.6,196.2,502.6z"/>
			<path class="st3" d="M210.2,501.3c0,0.9-0.3,1.7-1,2.2s-1.7,0.8-3,0.8c-1.3,0-2.3-0.2-3.1-0.6v-1.8c1.1,0.5,2.2,0.8,3.2,0.8
				c1.3,0,1.9-0.4,1.9-1.2c0-0.2-0.1-0.5-0.2-0.6s-0.4-0.3-0.7-0.5s-0.8-0.4-1.3-0.6c-1.1-0.4-1.9-0.9-2.3-1.3s-0.6-1-0.6-1.7
				c0-0.8,0.3-1.5,1-1.9c0.7-0.5,1.6-0.7,2.7-0.7c1.1,0,2.2,0.2,3.2,0.7l-0.7,1.6c-1-0.4-1.9-0.7-2.6-0.7c-1.1,0-1.6,0.3-1.6,0.9
				c0,0.3,0.1,0.6,0.4,0.8s0.9,0.5,1.9,0.9c0.8,0.3,1.4,0.6,1.7,0.9s0.6,0.6,0.8,0.9S210.2,500.8,210.2,501.3z"/>
			<path class="st3" d="M221,504h-2.1v-6c0-0.8-0.2-1.3-0.5-1.7s-0.8-0.6-1.4-0.6c-0.9,0-1.5,0.3-1.9,0.8c-0.4,0.5-0.6,1.4-0.6,2.6
				v4.8h-2.1v-13.7h2.1v3.5c0,0.6,0,1.2-0.1,1.8h0.1c0.3-0.5,0.7-0.8,1.2-1.1s1.1-0.4,1.8-0.4c2.4,0,3.5,1.2,3.5,3.6V504z"/>
		</g>
	</g>
	<g>
		<path class="st4" d="M114.4,495.8H95.6v-21.6h7.7c6.1,0,11.1,4.9,11.1,11.1V495.8z"/>
		<path class="st3" d="M114.4,514.7h-7.7c-6.1,0-11.1-4.9-11.1-11.1v-7.7h18.8L114.4,514.7L114.4,514.7z"/>
		<rect x="114.4" y="495.8" class="st5" width="17.2" height="18.8"/>
		<rect x="114.4" y="495.8" class="st6" width="4" height="18.8"/>
	</g>
</g>
<g>
	<g>
		<path class="st7" d="M194.1,573.3h-55.2c-1.8,0-3.2-1.4-3.2-3.2v-13.7c0-1.8,1.4-3.2,3.2-3.2h55.2c1.8,0,3.2,1.4,3.2,3.2v13.7
			C197.3,571.9,195.9,573.3,194.1,573.3z"/>
		<circle class="st7" cx="144.5" cy="563.2" r="3.3"/>
		<circle class="st7" cx="156.2" cy="563.2" r="3.3"/>
	</g>
	<g>
		<path class="st7" d="M189.1,568.3h-55.2c-1.8,0-3.2-1.4-3.2-3.2v-13.7c0-1.8,1.4-3.2,3.2-3.2h55.2c1.8,0,3.2,1.4,3.2,3.2V565
			C192.3,566.8,190.8,568.3,189.1,568.3z"/>
		<circle class="st7" cx="139.5" cy="558.2" r="3.3"/>
		<circle class="st7" cx="151.2" cy="558.2" r="3.3"/>
	</g>
	<g>
		<path class="st7" d="M184.1,563.3h-55.2c-1.8,0-3.2-1.4-3.2-3.2v-13.7c0-1.8,1.4-3.2,3.2-3.2h55.2c1.8,0,3.2,1.4,3.2,3.2v13.7
			C187.3,561.9,185.9,563.3,184.1,563.3z"/>
		<circle class="st7" cx="134.5" cy="553.2" r="3.3"/>
		<circle class="st7" cx="146.2" cy="553.2" r="3.3"/>
	</g>
</g>
<g class="st2">
	<path d="M105.1,34.9l-1.3-3.6h-4.9l-1.3,3.6h-2.2l4.8-12.9h2.3l4.8,12.9H105.1z M103.3,29.5l-1.2-3.5c-0.1-0.2-0.2-0.6-0.4-1.1
		s-0.3-0.9-0.3-1.1c-0.2,0.7-0.4,1.5-0.7,2.4l-1.2,3.3H103.3z"/>
	<path d="M115.7,34.9l-0.3-1.3h-0.1c-0.3,0.5-0.7,0.8-1.2,1.1s-1.1,0.4-1.8,0.4c-1.2,0-2.1-0.3-2.6-0.9s-0.9-1.5-0.9-2.7v-6.4h2.1v6
		c0,0.7,0.2,1.3,0.5,1.7s0.8,0.6,1.4,0.6c0.9,0,1.5-0.3,1.9-0.8s0.6-1.4,0.6-2.6v-4.8h2.1v9.7H115.7z"/>
	<path d="M123.9,33.4c0.5,0,1-0.1,1.5-0.2v1.6c-0.2,0.1-0.5,0.2-0.9,0.3s-0.7,0.1-1.1,0.1c-2,0-2.9-1-2.9-3.1v-5.2h-1.3v-0.9
		l1.4-0.8l0.7-2.1h1.3v2.2h2.8v1.6h-2.8v5.2c0,0.5,0.1,0.9,0.4,1.1S123.5,33.4,123.9,33.4z"/>
	<path d="M136,30c0,1.6-0.4,2.8-1.2,3.7s-1.9,1.3-3.4,1.3c-0.9,0-1.7-0.2-2.4-0.6s-1.2-1-1.6-1.8s-0.6-1.7-0.6-2.7
		c0-1.6,0.4-2.8,1.2-3.7s1.9-1.3,3.4-1.3c1.4,0,2.5,0.5,3.3,1.4S136,28.5,136,30z M128.9,30c0,2.2,0.8,3.4,2.5,3.4
		c1.6,0,2.5-1.1,2.5-3.4c0-2.2-0.8-3.3-2.5-3.3c-0.9,0-1.5,0.3-1.9,0.9S128.9,28.9,128.9,30z"/>
	<path d="M137.5,30.9v-1.8h4.5v1.8H137.5z"/>
	<path d="M154.4,22v8.3c0,0.9-0.2,1.8-0.6,2.5s-1,1.3-1.8,1.6s-1.7,0.6-2.8,0.6c-1.6,0-2.8-0.4-3.7-1.3s-1.3-2-1.3-3.5V22h2.1v8.1
		c0,1.1,0.2,1.8,0.7,2.3s1.2,0.8,2.3,0.8c2,0,3-1,3-3.1V22H154.4z"/>
	<path d="M162.4,35c-1.2,0-2.2-0.4-2.9-1.3h-0.1c0.1,0.8,0.1,1.3,0.1,1.5v4h-2.1v-14h1.7c0,0.2,0.1,0.6,0.3,1.3h0.1
		c0.6-1,1.6-1.5,2.9-1.5c1.2,0,2.2,0.4,2.8,1.3s1,2.1,1,3.7s-0.3,2.8-1,3.7S163.6,35,162.4,35z M161.9,26.7c-0.8,0-1.4,0.2-1.8,0.7
		s-0.6,1.2-0.6,2.3V30c0,1.2,0.2,2,0.6,2.6s1,0.8,1.8,0.8c0.7,0,1.3-0.3,1.7-0.9s0.6-1.4,0.6-2.5c0-1.1-0.2-1.9-0.6-2.5
		S162.7,26.7,161.9,26.7z"/>
	<path d="M172,35c-1.2,0-2.2-0.4-2.8-1.3s-1-2.1-1-3.7c0-1.6,0.3-2.8,1-3.7s1.6-1.3,2.9-1.3c1.3,0,2.2,0.5,2.9,1.4h0.1
		c-0.1-0.7-0.1-1.2-0.1-1.7v-3.5h2.1v13.7h-1.6l-0.4-1.3h-0.1C174.2,34.6,173.3,35,172,35z M172.5,33.4c0.8,0,1.5-0.2,1.9-0.7
		s0.6-1.3,0.6-2.3V30c0-1.2-0.2-2.1-0.6-2.6s-1-0.8-1.9-0.8c-0.7,0-1.3,0.3-1.7,0.9s-0.6,1.4-0.6,2.5c0,1.1,0.2,1.9,0.6,2.5
		S171.8,33.4,172.5,33.4z"/>
	<path d="M186,34.9l-0.4-1.4h-0.1c-0.5,0.6-0.9,1-1.4,1.2S183,35,182.3,35c-1,0-1.7-0.3-2.2-0.8s-0.8-1.2-0.8-2.2
		c0-1,0.4-1.8,1.1-2.3s1.9-0.8,3.4-0.8l1.7-0.1v-0.5c0-0.6-0.1-1.1-0.4-1.4s-0.7-0.5-1.3-0.5c-0.5,0-1,0.1-1.4,0.2s-0.9,0.3-1.3,0.5
		l-0.7-1.5c0.5-0.3,1.1-0.5,1.7-0.6s1.2-0.2,1.8-0.2c1.2,0,2.2,0.3,2.8,0.8s0.9,1.4,0.9,2.5v6.5H186z M182.9,33.5
		c0.8,0,1.4-0.2,1.8-0.6s0.7-1,0.7-1.8v-0.8l-1.2,0.1c-1,0-1.7,0.2-2.1,0.5s-0.7,0.7-0.7,1.3c0,0.4,0.1,0.8,0.4,1
		S182.4,33.5,182.9,33.5z"/>
	<path d="M194,33.4c0.5,0,1-0.1,1.5-0.2v1.6c-0.2,0.1-0.5,0.2-0.9,0.3s-0.7,0.1-1.1,0.1c-2,0-2.9-1-2.9-3.1v-5.2h-1.3v-0.9l1.4-0.8
		l0.7-2.1h1.3v2.2h2.8v1.6h-2.8v5.2c0,0.5,0.1,0.9,0.4,1.1S193.6,33.4,194,33.4z"/>
	<path d="M201.7,35c-1.5,0-2.7-0.4-3.5-1.3s-1.3-2.1-1.3-3.6c0-1.6,0.4-2.8,1.2-3.7s1.9-1.4,3.3-1.4c1.3,0,2.3,0.4,3,1.2
		s1.1,1.9,1.1,3.2v1.1H199c0,0.9,0.3,1.7,0.8,2.2s1.2,0.8,2,0.8c0.6,0,1.1-0.1,1.6-0.2s1-0.3,1.6-0.5v1.7c-0.5,0.2-1,0.4-1.5,0.5
		S202.3,35,201.7,35z M201.3,26.5c-0.7,0-1.2,0.2-1.6,0.6s-0.6,1-0.7,1.8h4.4c0-0.8-0.2-1.4-0.6-1.8S202,26.5,201.3,26.5z"/>
	<path d="M221.2,25.9c0,1.3-0.4,2.4-1.3,3.1s-2.1,1.1-3.8,1.1h-1.3v4.8h-2.1V22h3.7c1.6,0,2.8,0.3,3.6,1S221.2,24.6,221.2,25.9z
		 M214.8,28.3h1.1c1.1,0,1.9-0.2,2.4-0.6s0.8-1,0.8-1.8c0-0.7-0.2-1.3-0.7-1.7s-1.2-0.5-2.1-0.5h-1.5V28.3z"/>
	<path d="M223.4,22.6c0-0.4,0.1-0.7,0.3-0.9s0.5-0.3,0.9-0.3c0.4,0,0.6,0.1,0.8,0.3s0.3,0.5,0.3,0.9c0,0.4-0.1,0.6-0.3,0.8
		s-0.5,0.3-0.8,0.3c-0.4,0-0.7-0.1-0.9-0.3S223.4,22.9,223.4,22.6z M225.6,34.9h-2.1v-9.7h2.1V34.9z"/>
	<path d="M233.5,35c-1.2,0-2.2-0.4-2.9-1.3h-0.1c0.1,0.8,0.1,1.3,0.1,1.5v4h-2.1v-14h1.7c0,0.2,0.1,0.6,0.3,1.3h0.1
		c0.6-1,1.6-1.5,2.9-1.5c1.2,0,2.2,0.4,2.8,1.3s1,2.1,1,3.7s-0.3,2.8-1,3.7S234.7,35,233.5,35z M233,26.7c-0.8,0-1.4,0.2-1.8,0.7
		s-0.6,1.2-0.6,2.3V30c0,1.2,0.2,2,0.6,2.6s1,0.8,1.8,0.8c0.7,0,1.3-0.3,1.7-0.9s0.6-1.4,0.6-2.5c0-1.1-0.2-1.9-0.6-2.5
		S233.8,26.7,233,26.7z"/>
	<path d="M244,35c-1.5,0-2.7-0.4-3.5-1.3s-1.3-2.1-1.3-3.6c0-1.6,0.4-2.8,1.2-3.7s1.9-1.4,3.3-1.4c1.3,0,2.3,0.4,3,1.2
		s1.1,1.9,1.1,3.2v1.1h-6.5c0,0.9,0.3,1.7,0.8,2.2s1.2,0.8,2,0.8c0.6,0,1.1-0.1,1.6-0.2s1-0.3,1.6-0.5v1.7c-0.5,0.2-1,0.4-1.5,0.5
		S244.7,35,244,35z M243.7,26.5c-0.7,0-1.2,0.2-1.6,0.6s-0.6,1-0.7,1.8h4.4c0-0.8-0.2-1.4-0.6-1.8S244.3,26.5,243.7,26.5z"/>
	<path d="M252.2,34.9h-2.1V21.2h2.1V34.9z"/>
	<path d="M255.1,22.6c0-0.4,0.1-0.7,0.3-0.9s0.5-0.3,0.9-0.3c0.4,0,0.6,0.1,0.8,0.3s0.3,0.5,0.3,0.9c0,0.4-0.1,0.6-0.3,0.8
		s-0.5,0.3-0.8,0.3c-0.4,0-0.7-0.1-0.9-0.3S255.1,22.9,255.1,22.6z M257.2,34.9h-2.1v-9.7h2.1V34.9z"/>
	<path d="M268.8,34.9h-2.1v-6c0-0.8-0.2-1.3-0.5-1.7s-0.8-0.6-1.4-0.6c-0.9,0-1.5,0.3-1.9,0.8s-0.6,1.4-0.6,2.6v4.8h-2.1v-9.7h1.6
		l0.3,1.3h0.1c0.3-0.5,0.7-0.8,1.2-1.1s1.1-0.4,1.8-0.4c2.3,0,3.5,1.2,3.5,3.6V34.9z"/>
	<path d="M275.9,35c-1.5,0-2.7-0.4-3.5-1.3s-1.3-2.1-1.3-3.6c0-1.6,0.4-2.8,1.2-3.7s1.9-1.4,3.3-1.4c1.3,0,2.3,0.4,3,1.2
		s1.1,1.9,1.1,3.2v1.1h-6.5c0,0.9,0.3,1.7,0.8,2.2s1.2,0.8,2,0.8c0.6,0,1.1-0.1,1.6-0.2s1-0.3,1.6-0.5v1.7c-0.5,0.2-1,0.4-1.5,0.5
		S276.5,35,275.9,35z M275.5,26.5c-0.7,0-1.2,0.2-1.6,0.6s-0.6,1-0.7,1.8h4.4c0-0.8-0.2-1.4-0.6-1.8S276.2,26.5,275.5,26.5z"/>
	<path d="M288.5,32.1c0,0.9-0.3,1.7-1,2.2s-1.7,0.8-3,0.8c-1.3,0-2.3-0.2-3.1-0.6v-1.8c1.1,0.5,2.2,0.8,3.2,0.8
		c1.3,0,1.9-0.4,1.9-1.2c0-0.2-0.1-0.5-0.2-0.6s-0.4-0.3-0.7-0.5s-0.8-0.4-1.3-0.6c-1.1-0.4-1.9-0.9-2.3-1.3s-0.6-1-0.6-1.7
		c0-0.8,0.3-1.5,1-1.9s1.6-0.7,2.7-0.7c1.1,0,2.2,0.2,3.2,0.7l-0.7,1.6c-1-0.4-1.9-0.7-2.6-0.7c-1.1,0-1.6,0.3-1.6,0.9
		c0,0.3,0.1,0.6,0.4,0.8s0.9,0.5,1.9,0.9c0.8,0.3,1.4,0.6,1.7,0.9s0.6,0.6,0.8,0.9S288.5,31.6,288.5,32.1z"/>
</g>
<g class="st2">
	<path d="M483.3,28.3c0,2.1-0.6,3.7-1.8,4.9s-2.9,1.7-5.1,1.7h-3.6V22h4c2,0,3.6,0.6,4.8,1.7S483.3,26.3,483.3,28.3z M481,28.4
		c0-3.1-1.4-4.6-4.3-4.6h-1.8v9.3h1.5C479.5,33.1,481,31.5,481,28.4z"/>
	<path d="M490,35c-1.5,0-2.7-0.4-3.5-1.3c-0.9-0.9-1.3-2.1-1.3-3.6c0-1.6,0.4-2.8,1.2-3.7s1.9-1.4,3.3-1.4c1.3,0,2.3,0.4,3,1.2
		s1.1,1.9,1.1,3.2v1.1h-6.5c0,0.9,0.3,1.7,0.8,2.2s1.2,0.8,2,0.8c0.6,0,1.1-0.1,1.6-0.2s1-0.3,1.6-0.5v1.7c-0.5,0.2-1,0.4-1.5,0.5
		S490.7,35,490,35z M489.7,26.5c-0.7,0-1.2,0.2-1.6,0.6c-0.4,0.4-0.6,1-0.7,1.8h4.4c0-0.8-0.2-1.4-0.6-1.8S490.3,26.5,489.7,26.5z"
		/>
	<path d="M498.4,34.9l-3.7-9.7h2.2l2,5.7c0.3,0.9,0.5,1.7,0.6,2.3h0.1c0.1-0.4,0.3-1.2,0.6-2.3l2-5.7h2.2l-3.7,9.7H498.4z"/>
	<path d="M517.4,28.4c0,2.1-0.5,3.7-1.6,4.9c-1,1.2-2.5,1.7-4.4,1.7c-1.9,0-3.4-0.6-4.5-1.7s-1.6-2.8-1.6-4.9s0.5-3.8,1.6-4.9
		c1-1.1,2.5-1.7,4.5-1.7c1.9,0,3.4,0.6,4.4,1.7S517.4,26.3,517.4,28.4z M507.6,28.4c0,1.6,0.3,2.8,1,3.6s1.6,1.2,2.8,1.2
		c1.2,0,2.2-0.4,2.8-1.2s1-2,1-3.6c0-1.6-0.3-2.8-0.9-3.6c-0.6-0.8-1.6-1.2-2.8-1.2c-1.3,0-2.2,0.4-2.9,1.2
		C507.9,25.7,507.6,26.8,507.6,28.4z"/>
	<path d="M524.9,35c-1.2,0-2.2-0.4-2.9-1.3h-0.1c0.1,0.8,0.1,1.3,0.1,1.5v4H520v-14h1.7c0,0.2,0.1,0.6,0.3,1.3h0.1
		c0.6-1,1.6-1.5,2.9-1.5c1.2,0,2.2,0.4,2.8,1.3c0.7,0.9,1,2.1,1,3.7s-0.3,2.8-1,3.7C527.1,34.6,526.1,35,524.9,35z M524.4,26.7
		c-0.8,0-1.4,0.2-1.8,0.7c-0.4,0.5-0.6,1.2-0.6,2.3V30c0,1.2,0.2,2,0.6,2.6s1,0.8,1.8,0.8c0.7,0,1.3-0.3,1.7-0.9s0.6-1.4,0.6-2.5
		c0-1.1-0.2-1.9-0.6-2.5S525.1,26.7,524.4,26.7z"/>
	<path d="M537.7,32.1c0,0.9-0.3,1.7-1,2.2s-1.7,0.8-3,0.8c-1.3,0-2.3-0.2-3.1-0.6v-1.8c1.1,0.5,2.2,0.8,3.2,0.8
		c1.3,0,1.9-0.4,1.9-1.2c0-0.2-0.1-0.5-0.2-0.6s-0.4-0.3-0.7-0.5s-0.8-0.4-1.3-0.6c-1.1-0.4-1.9-0.9-2.3-1.3c-0.4-0.4-0.6-1-0.6-1.7
		c0-0.8,0.3-1.5,1-1.9s1.6-0.7,2.7-0.7c1.1,0,2.2,0.2,3.2,0.7l-0.7,1.6c-1-0.4-1.9-0.7-2.6-0.7c-1.1,0-1.6,0.3-1.6,0.9
		c0,0.3,0.1,0.6,0.4,0.8s0.9,0.5,1.9,0.9c0.8,0.3,1.4,0.6,1.7,0.9s0.6,0.6,0.8,0.9S537.7,31.6,537.7,32.1z"/>
	<path d="M550,22l-4.8,12.8h-2l4.8-12.8H550z"/>
	<path d="M564.5,34.9l-1.3-3.6h-4.9l-1.3,3.6h-2.2l4.8-12.9h2.3l4.8,12.9H564.5z M562.7,29.5l-1.2-3.5c-0.1-0.2-0.2-0.6-0.4-1.1
		s-0.3-0.9-0.3-1.1c-0.2,0.7-0.4,1.5-0.7,2.4l-1.2,3.3H562.7z"/>
	<path d="M571.5,35c-1.2,0-2.2-0.4-2.8-1.3s-1-2.1-1-3.7c0-1.6,0.3-2.8,1-3.7c0.7-0.9,1.6-1.3,2.9-1.3c1.3,0,2.2,0.5,2.9,1.4h0.1
		c-0.1-0.7-0.1-1.2-0.1-1.7v-3.5h2.1v13.7h-1.6l-0.4-1.3h-0.1C573.7,34.6,572.8,35,571.5,35z M572,33.4c0.8,0,1.5-0.2,1.9-0.7
		s0.6-1.3,0.6-2.3V30c0-1.2-0.2-2.1-0.6-2.6s-1-0.8-1.9-0.8c-0.7,0-1.3,0.3-1.7,0.9s-0.6,1.4-0.6,2.5c0,1.1,0.2,1.9,0.6,2.5
		S571.3,33.4,572,33.4z"/>
	<path d="M587.6,34.9h-2.1v-6c0-0.7-0.1-1.3-0.4-1.7s-0.7-0.5-1.3-0.5c-0.8,0-1.4,0.3-1.8,0.8s-0.6,1.4-0.6,2.6v4.8h-2.1v-9.7h1.6
		l0.3,1.3h0.1c0.3-0.5,0.7-0.8,1.2-1.1s1.1-0.4,1.7-0.4c1.5,0,2.5,0.5,3,1.5h0.1c0.3-0.5,0.7-0.9,1.2-1.1s1.1-0.4,1.8-0.4
		c1.2,0,2,0.3,2.5,0.9c0.5,0.6,0.8,1.5,0.8,2.7v6.3h-2.1v-6c0-0.7-0.1-1.3-0.4-1.7s-0.7-0.5-1.3-0.5c-0.8,0-1.4,0.3-1.8,0.8
		c-0.4,0.5-0.6,1.3-0.6,2.3V34.9z"/>
	<path d="M596.5,22.6c0-0.4,0.1-0.7,0.3-0.9c0.2-0.2,0.5-0.3,0.9-0.3c0.4,0,0.6,0.1,0.8,0.3c0.2,0.2,0.3,0.5,0.3,0.9
		c0,0.4-0.1,0.6-0.3,0.8c-0.2,0.2-0.5,0.3-0.8,0.3c-0.4,0-0.7-0.1-0.9-0.3C596.6,23.2,596.5,22.9,596.5,22.6z M598.7,34.9h-2.1v-9.7
		h2.1V34.9z"/>
	<path d="M610.2,34.9h-2.1v-6c0-0.8-0.2-1.3-0.5-1.7c-0.3-0.4-0.8-0.6-1.4-0.6c-0.9,0-1.5,0.3-1.9,0.8s-0.6,1.4-0.6,2.6v4.8h-2.1
		v-9.7h1.6l0.3,1.3h0.1c0.3-0.5,0.7-0.8,1.2-1.1s1.1-0.4,1.8-0.4c2.3,0,3.5,1.2,3.5,3.6V34.9z"/>
	<path d="M619.6,32.1c0,0.9-0.3,1.7-1,2.2s-1.7,0.8-3,0.8c-1.3,0-2.3-0.2-3.1-0.6v-1.8c1.1,0.5,2.2,0.8,3.2,0.8
		c1.3,0,1.9-0.4,1.9-1.2c0-0.2-0.1-0.5-0.2-0.6s-0.4-0.3-0.7-0.5s-0.8-0.4-1.3-0.6c-1.1-0.4-1.9-0.9-2.3-1.3c-0.4-0.4-0.6-1-0.6-1.7
		c0-0.8,0.3-1.5,1-1.9s1.6-0.7,2.7-0.7c1.1,0,2.2,0.2,3.2,0.7l-0.7,1.6c-1-0.4-1.9-0.7-2.6-0.7c-1.1,0-1.6,0.3-1.6,0.9
		c0,0.3,0.1,0.6,0.4,0.8s0.9,0.5,1.9,0.9c0.8,0.3,1.4,0.6,1.7,0.9s0.6,0.6,0.8,0.9S619.6,31.6,619.6,32.1z"/>
</g>
<path class="st9" d="M709.5,596.3H420.4c-3.6,0-6.5-2.9-6.5-6.5V141c0-3.6,2.9-6.5,6.5-6.5h289.2c3.6,0,6.5,2.9,6.5,6.5v448.8
	C716,593.4,713.1,596.3,709.5,596.3z"/>
<g class="st2">
	<path d="M328.5,190.4l-1.1-3.2H323l-1.1,3.2h-2l4.3-11.5h2l4.3,11.5H328.5z M326.9,185.6l-1.1-3.1c-0.1-0.2-0.2-0.5-0.3-1
		c-0.1-0.4-0.2-0.8-0.3-1c-0.1,0.6-0.3,1.3-0.6,2.1l-1,3H326.9z"/>
	<path d="M336.2,190.5c-1.1,0-1.9-0.4-2.5-1.2h-0.1c0.1,0.7,0.1,1.2,0.1,1.3v3.5h-1.8v-12.5h1.5c0,0.2,0.1,0.5,0.3,1.2h0.1
		c0.6-0.9,1.4-1.3,2.6-1.3c1.1,0,1.9,0.4,2.5,1.2s0.9,1.9,0.9,3.3c0,1.4-0.3,2.5-0.9,3.3C338.1,190.1,337.3,190.5,336.2,190.5z
		 M335.8,183.1c-0.7,0-1.3,0.2-1.6,0.6c-0.3,0.4-0.5,1.1-0.5,2v0.3c0,1.1,0.2,1.8,0.5,2.3c0.3,0.5,0.9,0.7,1.6,0.7
		c0.6,0,1.1-0.3,1.5-0.8c0.3-0.5,0.5-1.3,0.5-2.2c0-1-0.2-1.7-0.5-2.2C336.9,183.3,336.4,183.1,335.8,183.1z"/>
	<path d="M347.2,190.4l-0.4-1.2h-0.1c-0.4,0.5-0.8,0.9-1.3,1.1s-1,0.3-1.6,0.3c-0.8,0-1.5-0.2-2-0.7c-0.5-0.5-0.7-1.1-0.7-1.9
		c0-0.9,0.3-1.6,1-2c0.7-0.5,1.7-0.7,3-0.7l1.5,0v-0.5c0-0.6-0.1-1-0.4-1.2s-0.7-0.4-1.2-0.4c-0.4,0-0.9,0.1-1.3,0.2
		c-0.4,0.1-0.8,0.3-1.2,0.5l-0.6-1.3c0.5-0.2,1-0.4,1.5-0.6c0.6-0.1,1.1-0.2,1.6-0.2c1.1,0,1.9,0.2,2.5,0.7c0.6,0.5,0.8,1.2,0.8,2.3
		v5.8H347.2z M344.5,189.1c0.7,0,1.2-0.2,1.6-0.6c0.4-0.4,0.6-0.9,0.6-1.6v-0.8l-1.1,0c-0.9,0-1.5,0.2-1.9,0.4
		c-0.4,0.3-0.6,0.7-0.6,1.2c0,0.4,0.1,0.7,0.3,0.9C343.7,189,344,189.1,344.5,189.1z"/>
	<path d="M354.5,190.5c-1.3,0-2.3-0.4-3-1.1c-0.7-0.8-1-1.9-1-3.3c0-1.5,0.4-2.6,1.1-3.4s1.7-1.2,3.1-1.2c0.9,0,1.7,0.2,2.5,0.5
		l-0.6,1.5c-0.8-0.3-1.4-0.5-1.9-0.5c-1.5,0-2.2,1-2.2,3c0,1,0.2,1.7,0.6,2.2c0.4,0.5,0.9,0.7,1.6,0.7c0.8,0,1.6-0.2,2.3-0.6v1.6
		c-0.3,0.2-0.7,0.3-1.1,0.4C355.5,190.5,355.1,190.5,354.5,190.5z"/>
	<path d="M366.6,190.4h-1.8v-5.3c0-0.7-0.1-1.2-0.4-1.5c-0.3-0.3-0.7-0.5-1.3-0.5c-0.8,0-1.3,0.2-1.7,0.7c-0.4,0.5-0.5,1.2-0.5,2.3
		v4.3H359v-12.2h1.8v3.1c0,0.5,0,1-0.1,1.6h0.1c0.2-0.4,0.6-0.7,1-1c0.4-0.2,1-0.3,1.6-0.3c2.1,0,3.1,1.1,3.1,3.2V190.4z"/>
	<path d="M372.9,190.5c-1.3,0-2.4-0.4-3.2-1.2c-0.8-0.8-1.1-1.9-1.1-3.2c0-1.4,0.4-2.5,1.1-3.3c0.7-0.8,1.7-1.2,2.9-1.2
		c1.1,0,2,0.3,2.7,1c0.7,0.7,1,1.6,1,2.9v1h-5.8c0,0.8,0.3,1.5,0.7,1.9c0.4,0.5,1,0.7,1.8,0.7c0.5,0,1,0,1.4-0.1
		c0.4-0.1,0.9-0.3,1.4-0.5v1.5c-0.4,0.2-0.9,0.4-1.4,0.5S373.5,190.5,372.9,190.5z M372.6,183c-0.6,0-1.1,0.2-1.4,0.6
		c-0.4,0.4-0.6,0.9-0.6,1.6h3.9c0-0.7-0.2-1.3-0.5-1.6S373.2,183,372.6,183z"/>
</g>
<g class="st2">
	<path d="M328.9,348.1c-0.5,0-0.9-0.1-1.3-0.2v-1.6c0.4,0.1,0.8,0.2,1.1,0.2c1,0,1.5-0.6,1.5-1.9v-11.1h1.9v11
		c0,1.2-0.3,2.1-0.8,2.7S330,348.1,328.9,348.1z"/>
	<path d="M344.4,339.1c0,1.9-0.5,3.3-1.6,4.3s-2.6,1.5-4.5,1.5h-3.2v-11.4h3.5c1.8,0,3.2,0.5,4.2,1.5
		C343.9,335.9,344.4,337.3,344.4,339.1z M342.5,339.2c0-2.7-1.3-4.1-3.8-4.1H337v8.3h1.3C341.1,343.3,342.5,342,342.5,339.2z"/>
	<path d="M346.9,333.5h3.4c1.6,0,2.7,0.2,3.4,0.7c0.7,0.5,1.1,1.2,1.1,2.2c0,0.7-0.2,1.2-0.5,1.7s-0.8,0.7-1.5,0.8v0.1
		c0.8,0.2,1.4,0.4,1.8,0.9c0.4,0.4,0.6,1,0.6,1.8c0,1-0.4,1.8-1.1,2.4c-0.7,0.6-1.7,0.9-3,0.9h-4.1V333.5z M348.8,338.2h1.8
		c0.8,0,1.4-0.1,1.7-0.4s0.5-0.7,0.5-1.3c0-0.5-0.2-0.9-0.6-1.2c-0.4-0.2-1-0.4-1.8-0.4h-1.6V338.2z M348.8,339.7v3.6h2
		c0.8,0,1.4-0.1,1.8-0.4s0.6-0.8,0.6-1.4c0-0.6-0.2-1-0.6-1.3s-1-0.4-1.9-0.4H348.8z"/>
	<path d="M362.3,334.9c-1.1,0-1.9,0.4-2.5,1.1c-0.6,0.8-0.9,1.8-0.9,3.1c0,1.4,0.3,2.5,0.9,3.2c0.6,0.7,1.4,1.1,2.6,1.1
		c0.5,0,1,0,1.4-0.1s0.9-0.2,1.4-0.4v1.6c-0.9,0.3-1.9,0.5-3,0.5c-1.7,0-3-0.5-3.9-1.5c-0.9-1-1.3-2.5-1.3-4.3
		c0-1.2,0.2-2.2,0.7-3.1c0.4-0.9,1.1-1.6,1.9-2c0.8-0.5,1.8-0.7,2.9-0.7c1.2,0,2.2,0.2,3.2,0.7l-0.7,1.6c-0.4-0.2-0.8-0.3-1.2-0.5
		S362.8,334.9,362.3,334.9z"/>
</g>
<g class="st2">
	<path d="M329.1,506.5h-2.3l-5.6-9.1h-0.1l0,0.5c0.1,1,0.1,1.9,0.1,2.7v5.9h-1.7v-11.4h2.3l5.6,9.1h0c0-0.1,0-0.6-0.1-1.3
		s0-1.3,0-1.8v-6h1.7V506.5z"/>
	<path d="M335.7,506.7c-1.3,0-2.4-0.4-3.2-1.2s-1.1-1.9-1.1-3.2c0-1.4,0.4-2.5,1.1-3.3s1.7-1.2,2.9-1.2c1.1,0,2,0.3,2.7,1
		c0.7,0.7,1,1.6,1,2.9v1h-5.8c0,0.8,0.3,1.5,0.7,1.9c0.4,0.5,1,0.7,1.8,0.7c0.5,0,1,0,1.4-0.1c0.4-0.1,0.9-0.3,1.4-0.5v1.5
		c-0.4,0.2-0.9,0.4-1.4,0.5C336.8,506.6,336.3,506.7,335.7,506.7z M335.4,499.1c-0.6,0-1.1,0.2-1.4,0.6s-0.6,0.9-0.6,1.6h3.9
		c0-0.7-0.2-1.3-0.5-1.6C336.4,499.3,336,499.1,335.4,499.1z"/>
	<path d="M344.4,505.2c0.4,0,0.9-0.1,1.3-0.2v1.4c-0.2,0.1-0.5,0.2-0.8,0.2s-0.7,0.1-1,0.1c-1.7,0-2.6-0.9-2.6-2.8v-4.7h-1.2v-0.8
		l1.3-0.7l0.6-1.8h1.1v1.9h2.5v1.4h-2.5v4.6c0,0.4,0.1,0.8,0.3,1C343.7,505.1,344,505.2,344.4,505.2z"/>
	<path d="M351.8,499.3h-2.1v7.2h-1.8v-7.2h-1.4v-0.9l1.4-0.6v-0.6c0-1,0.2-1.8,0.7-2.3c0.5-0.5,1.2-0.7,2.2-0.7
		c0.6,0,1.3,0.1,1.9,0.3l-0.5,1.4c-0.5-0.1-0.9-0.2-1.3-0.2c-0.4,0-0.7,0.1-0.9,0.4c-0.2,0.3-0.3,0.6-0.3,1.2v0.6h2.1V499.3z
		 M355.1,506.5h-1.8v-12.2h1.8V506.5z"/>
	<path d="M365.4,502.2c0,1.4-0.4,2.5-1.1,3.3c-0.7,0.8-1.7,1.2-3,1.2c-0.8,0-1.5-0.2-2.1-0.5c-0.6-0.4-1.1-0.9-1.4-1.6
		c-0.3-0.7-0.5-1.5-0.5-2.4c0-1.4,0.4-2.5,1.1-3.3s1.7-1.2,3-1.2c1.2,0,2.2,0.4,3,1.2C365,499.7,365.4,500.8,365.4,502.2z
		 M359.1,502.2c0,2,0.7,3,2.2,3c1.5,0,2.2-1,2.2-3c0-2-0.7-3-2.2-3c-0.8,0-1.3,0.3-1.7,0.8C359.3,500.5,359.1,501.2,359.1,502.2z"/>
	<path d="M374.6,506.5l-1.1-4c-0.1-0.4-0.4-1.4-0.7-3h-0.1c-0.3,1.4-0.5,2.4-0.7,3l-1.1,4h-2l-2.4-8.6h1.9l1.1,4.3
		c0.2,1.1,0.4,2,0.5,2.7h0c0.1-0.4,0.1-0.8,0.2-1.3s0.2-0.9,0.3-1.1l1.3-4.5h2l1.3,4.5c0.1,0.3,0.2,0.6,0.3,1.2s0.2,0.9,0.2,1.2h0.1
		c0.1-0.6,0.3-1.5,0.5-2.7l1.1-4.3h1.8l-2.4,8.6H374.6z"/>
</g>
<g>
	<g>
		<g class="st2">
			<path class="st3" d="M527.9,482.3h-7.3v-12.8h7.3v1.8h-5.2v3.5h4.8v1.8h-4.8v4h5.2V482.3z"/>
			<path class="st3" d="M532.5,482.3h-2.1v-13.7h2.1V482.3z"/>
			<path class="st3" d="M541.5,482.3l-0.4-1.4h-0.1c-0.5,0.6-0.9,1-1.4,1.2c-0.5,0.2-1.1,0.3-1.8,0.3c-1,0-1.7-0.3-2.2-0.8
				c-0.5-0.5-0.8-1.2-0.8-2.2c0-1,0.4-1.8,1.1-2.3s1.9-0.8,3.4-0.8l1.7-0.1v-0.5c0-0.6-0.1-1.1-0.4-1.4c-0.3-0.3-0.7-0.5-1.3-0.5
				c-0.5,0-1,0.1-1.4,0.2s-0.9,0.3-1.3,0.5l-0.7-1.5c0.5-0.3,1.1-0.5,1.7-0.6c0.6-0.1,1.2-0.2,1.8-0.2c1.2,0,2.2,0.3,2.8,0.8
				s0.9,1.4,0.9,2.5v6.5H541.5z M538.5,480.9c0.8,0,1.4-0.2,1.8-0.6c0.5-0.4,0.7-1,0.7-1.8v-0.8l-1.2,0.1c-1,0-1.7,0.2-2.1,0.5
				c-0.4,0.3-0.7,0.7-0.7,1.3c0,0.4,0.1,0.8,0.4,1C537.6,480.8,537.9,480.9,538.5,480.9z"/>
			<path class="st3" d="M552.4,479.5c0,0.9-0.3,1.7-1,2.2s-1.7,0.8-3,0.8c-1.3,0-2.3-0.2-3.1-0.6v-1.8c1.1,0.5,2.2,0.8,3.2,0.8
				c1.3,0,1.9-0.4,1.9-1.2c0-0.2-0.1-0.5-0.2-0.6s-0.4-0.3-0.7-0.5s-0.8-0.4-1.3-0.6c-1.1-0.4-1.9-0.9-2.3-1.3
				c-0.4-0.4-0.6-1-0.6-1.7c0-0.8,0.3-1.5,1-1.9c0.7-0.5,1.6-0.7,2.7-0.7c1.1,0,2.2,0.2,3.2,0.7l-0.7,1.6c-1-0.4-1.9-0.7-2.6-0.7
				c-1.1,0-1.6,0.3-1.6,0.9c0,0.3,0.1,0.6,0.4,0.8s0.9,0.5,1.9,0.9c0.8,0.3,1.4,0.6,1.7,0.9s0.6,0.6,0.8,0.9
				S552.4,479.1,552.4,479.5z"/>
			<path class="st3" d="M558.3,480.8c0.5,0,1-0.1,1.5-0.2v1.6c-0.2,0.1-0.5,0.2-0.9,0.2c-0.4,0.1-0.7,0.1-1.1,0.1
				c-2,0-2.9-1-2.9-3.1v-5.2h-1.3v-0.9l1.4-0.8l0.7-2.1h1.3v2.2h2.8v1.6h-2.8v5.2c0,0.5,0.1,0.9,0.4,1.1
				C557.5,480.7,557.9,480.8,558.3,480.8z"/>
			<path class="st3" d="M561.6,470c0-0.4,0.1-0.7,0.3-0.9c0.2-0.2,0.5-0.3,0.9-0.3c0.4,0,0.6,0.1,0.8,0.3c0.2,0.2,0.3,0.5,0.3,0.9
				c0,0.4-0.1,0.6-0.3,0.8c-0.2,0.2-0.5,0.3-0.8,0.3c-0.4,0-0.7-0.1-0.9-0.3C561.7,470.6,561.6,470.4,561.6,470z M563.8,482.3h-2.1
				v-9.7h2.1V482.3z"/>
			<path class="st3" d="M570.7,482.5c-1.5,0-2.6-0.4-3.4-1.3c-0.8-0.9-1.1-2.1-1.1-3.7c0-1.6,0.4-2.9,1.2-3.8c0.8-0.9,2-1.3,3.5-1.3
				c1,0,1.9,0.2,2.8,0.6l-0.6,1.7c-0.9-0.3-1.6-0.5-2.2-0.5c-1.7,0-2.5,1.1-2.5,3.3c0,1.1,0.2,1.9,0.6,2.5c0.4,0.5,1,0.8,1.8,0.8
				c0.9,0,1.8-0.2,2.6-0.7v1.8c-0.4,0.2-0.8,0.4-1.2,0.5C571.8,482.4,571.3,482.5,570.7,482.5z"/>
			<path class="st3" d="M582.2,479.5c0,0.9-0.3,1.7-1,2.2s-1.7,0.8-3,0.8c-1.3,0-2.3-0.2-3.1-0.6v-1.8c1.1,0.5,2.2,0.8,3.2,0.8
				c1.3,0,1.9-0.4,1.9-1.2c0-0.2-0.1-0.5-0.2-0.6s-0.4-0.3-0.7-0.5s-0.8-0.4-1.3-0.6c-1.1-0.4-1.9-0.9-2.3-1.3
				c-0.4-0.4-0.6-1-0.6-1.7c0-0.8,0.3-1.5,1-1.9c0.7-0.5,1.6-0.7,2.7-0.7c1.1,0,2.2,0.2,3.2,0.7l-0.7,1.6c-1-0.4-1.9-0.7-2.6-0.7
				c-1.1,0-1.6,0.3-1.6,0.9c0,0.3,0.1,0.6,0.4,0.8s0.9,0.5,1.9,0.9c0.8,0.3,1.4,0.6,1.7,0.9s0.6,0.6,0.8,0.9
				S582.2,479.1,582.2,479.5z"/>
			<path class="st3" d="M588.7,482.5c-1.5,0-2.7-0.4-3.5-1.3c-0.9-0.9-1.3-2.1-1.3-3.6c0-1.6,0.4-2.8,1.2-3.7s1.9-1.4,3.3-1.4
				c1.3,0,2.3,0.4,3,1.2s1.1,1.9,1.1,3.2v1.1H586c0,0.9,0.3,1.7,0.8,2.2s1.2,0.8,2,0.8c0.6,0,1.1-0.1,1.6-0.2s1-0.3,1.6-0.5v1.7
				c-0.5,0.2-1,0.4-1.5,0.5S589.3,482.5,588.7,482.5z M588.3,474c-0.7,0-1.2,0.2-1.6,0.6c-0.4,0.4-0.6,1-0.7,1.8h4.4
				c0-0.8-0.2-1.4-0.6-1.8C589.5,474.2,588.9,474,588.3,474z"/>
			<path class="st3" d="M600.9,482.3l-0.4-1.4h-0.1c-0.5,0.6-0.9,1-1.4,1.2c-0.5,0.2-1.1,0.3-1.8,0.3c-1,0-1.7-0.3-2.2-0.8
				c-0.5-0.5-0.8-1.2-0.8-2.2c0-1,0.4-1.8,1.1-2.3s1.9-0.8,3.4-0.8l1.7-0.1v-0.5c0-0.6-0.1-1.1-0.4-1.4c-0.3-0.3-0.7-0.5-1.3-0.5
				c-0.5,0-1,0.1-1.4,0.2s-0.9,0.3-1.3,0.5l-0.7-1.5c0.5-0.3,1.1-0.5,1.7-0.6c0.6-0.1,1.2-0.2,1.8-0.2c1.2,0,2.2,0.3,2.8,0.8
				s0.9,1.4,0.9,2.5v6.5H600.9z M597.8,480.9c0.8,0,1.4-0.2,1.8-0.6c0.5-0.4,0.7-1,0.7-1.8v-0.8l-1.2,0.1c-1,0-1.7,0.2-2.1,0.5
				c-0.4,0.3-0.7,0.7-0.7,1.3c0,0.4,0.1,0.8,0.4,1C596.9,480.8,597.3,480.9,597.8,480.9z"/>
			<path class="st3" d="M610.2,472.4c0.4,0,0.8,0,1,0.1l-0.2,1.9c-0.3-0.1-0.6-0.1-0.9-0.1c-0.8,0-1.5,0.3-2,0.8s-0.8,1.2-0.8,2.1
				v5.1h-2.1v-9.7h1.6l0.3,1.7h0.1c0.3-0.6,0.7-1,1.3-1.4C609,472.6,609.6,472.4,610.2,472.4z"/>
			<path class="st3" d="M616.9,482.5c-1.5,0-2.6-0.4-3.4-1.3c-0.8-0.9-1.1-2.1-1.1-3.7c0-1.6,0.4-2.9,1.2-3.8c0.8-0.9,2-1.3,3.5-1.3
				c1,0,1.9,0.2,2.8,0.6l-0.6,1.7c-0.9-0.3-1.6-0.5-2.2-0.5c-1.7,0-2.5,1.1-2.5,3.3c0,1.1,0.2,1.9,0.6,2.5c0.4,0.5,1,0.8,1.8,0.8
				c0.9,0,1.8-0.2,2.6-0.7v1.8c-0.4,0.2-0.8,0.4-1.2,0.5C618,482.4,617.5,482.5,616.9,482.5z"/>
			<path class="st3" d="M630.5,482.3h-2.1v-6c0-0.8-0.2-1.3-0.5-1.7c-0.3-0.4-0.8-0.6-1.4-0.6c-0.9,0-1.5,0.3-1.9,0.8
				c-0.4,0.5-0.6,1.4-0.6,2.6v4.8h-2.1v-13.7h2.1v3.5c0,0.6,0,1.2-0.1,1.8h0.1c0.3-0.5,0.7-0.8,1.2-1.1c0.5-0.3,1.1-0.4,1.8-0.4
				c2.4,0,3.5,1.2,3.5,3.6V482.3z"/>
		</g>
	</g>
	<g>
		<g>
			<g>
				<g>
					<defs>
						<circle id="SVGID_1_" cx="487.4" cy="474.6" r="20.2"/>
					</defs>
					<clipPath id="SVGID_2_">
						<use xlink:href="#SVGID_1_"  style="overflow:visible;"/>
					</clipPath>
					<path class="st10" d="M499.8,465.7H468c-0.4,0-0.8-0.4-0.8-0.8v-9.8c0-0.4,0.4-0.8,0.8-0.8h37c0.4,0,0.8,0.4,0.8,0.8v4.7
						C505.7,463,503.1,465.7,499.8,465.7z"/>
				</g>
				<g>
					<defs>
						<circle id="SVGID_3_" cx="487.4" cy="474.6" r="20.2"/>
					</defs>
					<clipPath id="SVGID_4_">
						<use xlink:href="#SVGID_3_"  style="overflow:visible;"/>
					</clipPath>
					<path class="st11" d="M505.8,494.8h-38.5l0,0v-11.3l0,0h31.8c3.7,0,6.7,3,6.7,6.7V494.8L505.8,494.8z"/>
				</g>
				<g>
					<defs>
						<circle id="SVGID_5_" cx="487.4" cy="474.6" r="20.2"/>
					</defs>
					<clipPath id="SVGID_6_">
						<use xlink:href="#SVGID_5_"  style="overflow:visible;"/>
					</clipPath>
					<path class="st12" d="M493.8,480.3h-28.6v-11.4h28.6c3.1,0,5.7,2.5,5.7,5.7l0,0C499.5,477.7,496.9,480.3,493.8,480.3z"/>
				</g>
				<g>
					<defs>
						<circle id="SVGID_7_" cx="487.4" cy="474.6" r="20.2"/>
					</defs>
					<clipPath id="SVGID_8_">
						<use xlink:href="#SVGID_7_"  style="overflow:visible;"/>
					</clipPath>
					<path class="st13" d="M484.9,468.9h-18.7v11.4H485c0.4-1.7,0.6-3.6,0.6-5.7C485.6,472.4,485.4,470.6,484.9,468.9z"/>
				</g>
			</g>
			<path class="st14" d="M477.3,457.1c-3.4,2-6.3,5-8,8.6h14.9C482.7,462.3,480.2,459.3,477.3,457.1z"/>
			<path class="st15" d="M477.8,492.4c3-2.3,5.2-5.4,6.6-9h-15.3C471.1,487.3,474.1,490.4,477.8,492.4z"/>
		</g>
	</g>
</g>
<g>
	<circle class="st16" cx="716" cy="367.9" r="31"/>
	<g>
		<path class="st17" d="M699.8,370.2v0.2c0.7,8.3,6.4,15.8,15.4,18.8c0.4,0.1,0.7,0.1,1,0c9-3,15-10.5,15.4-18.8v-0.2L699.8,370.2
			L699.8,370.2z"/>
		<path class="st18" d="M703,369.3"/>
		<path class="st18" d="M731.6,370.2v-14.8c0-0.7-0.4-1.3-1.1-1.4l-14.3-4.3c-0.3-0.1-0.7-0.1-0.9,0L701,354
			c-0.7,0.2-1.1,0.8-1.1,1.4v14.8H731.6z"/>
		<rect x="699.8" y="365.4" class="st19" width="31.8" height="4.8"/>
	</g>
</g>
<g>
	<g>
		<g class="st2">
			<path class="st3" d="M553,314.9h-2.4l-4-5.8l-1.2,1v4.8h-2.1V302h2.1v6.1c0.6-0.7,1.1-1.4,1.7-2l3.5-4.1h2.4
				c-2.2,2.6-3.9,4.5-4.8,5.6L553,314.9z"/>
			<path class="st3" d="M554.4,302.6c0-0.4,0.1-0.7,0.3-0.9c0.2-0.2,0.5-0.3,0.9-0.3c0.4,0,0.6,0.1,0.8,0.3c0.2,0.2,0.3,0.5,0.3,0.9
				c0,0.4-0.1,0.6-0.3,0.8c-0.2,0.2-0.5,0.3-0.8,0.3c-0.4,0-0.7-0.1-0.9-0.3C554.5,303.2,554.4,302.9,554.4,302.6z M556.5,314.9
				h-2.1v-9.7h2.1V314.9z"/>
			<path class="st3" d="M564.5,305c1.2,0,2.2,0.4,2.8,1.3c0.7,0.9,1,2.1,1,3.7c0,1.6-0.3,2.8-1,3.7s-1.6,1.3-2.9,1.3
				c-1.2,0-2.2-0.4-2.9-1.3h-0.1l-0.4,1.2h-1.5v-13.7h2.1v3.3c0,0.2,0,0.6,0,1.1s0,0.8-0.1,0.9h0.1C562.2,305.4,563.2,305,564.5,305
				z M563.9,306.6c-0.8,0-1.4,0.2-1.8,0.7c-0.4,0.5-0.6,1.3-0.6,2.5v0.1c0,1.2,0.2,2,0.6,2.6s1,0.8,1.8,0.8c0.7,0,1.3-0.3,1.7-0.9
				c0.4-0.6,0.6-1.4,0.6-2.5C566.2,307.7,565.4,306.6,563.9,306.6z"/>
			<path class="st3" d="M576.8,314.9l-0.4-1.4h-0.1c-0.5,0.6-0.9,1-1.4,1.2s-1.1,0.3-1.8,0.3c-1,0-1.7-0.3-2.2-0.8
				c-0.5-0.5-0.8-1.2-0.8-2.2c0-1,0.4-1.8,1.1-2.3s1.9-0.8,3.4-0.8l1.7-0.1v-0.5c0-0.6-0.1-1.1-0.4-1.4c-0.3-0.3-0.7-0.5-1.3-0.5
				c-0.5,0-1,0.1-1.4,0.2s-0.9,0.3-1.3,0.5l-0.7-1.5c0.5-0.3,1.1-0.5,1.7-0.6s1.2-0.2,1.8-0.2c1.2,0,2.2,0.3,2.8,0.8
				s0.9,1.4,0.9,2.5v6.5H576.8z M573.7,313.4c0.8,0,1.4-0.2,1.8-0.6c0.5-0.4,0.7-1,0.7-1.8v-0.8l-1.2,0.1c-1,0-1.7,0.2-2.1,0.5
				c-0.4,0.3-0.7,0.7-0.7,1.3c0,0.4,0.1,0.8,0.4,1S573.2,313.4,573.7,313.4z"/>
			<path class="st3" d="M589.7,314.9h-2.1v-6c0-0.8-0.2-1.3-0.5-1.7c-0.3-0.4-0.8-0.6-1.4-0.6c-0.9,0-1.5,0.3-1.9,0.8
				s-0.6,1.4-0.6,2.6v4.8h-2.1v-9.7h1.6l0.3,1.3h0.1c0.3-0.5,0.7-0.8,1.2-1.1s1.1-0.4,1.8-0.4c2.3,0,3.5,1.2,3.5,3.6V314.9z"/>
			<path class="st3" d="M598.7,314.9l-0.4-1.4h-0.1c-0.5,0.6-0.9,1-1.4,1.2s-1.1,0.3-1.8,0.3c-1,0-1.7-0.3-2.2-0.8
				c-0.5-0.5-0.8-1.2-0.8-2.2c0-1,0.4-1.8,1.1-2.3s1.9-0.8,3.4-0.8l1.7-0.1v-0.5c0-0.6-0.1-1.1-0.4-1.4c-0.3-0.3-0.7-0.5-1.3-0.5
				c-0.5,0-1,0.1-1.4,0.2s-0.9,0.3-1.3,0.5l-0.7-1.5c0.5-0.3,1.1-0.5,1.7-0.6s1.2-0.2,1.8-0.2c1.2,0,2.2,0.3,2.8,0.8
				s0.9,1.4,0.9,2.5v6.5H598.7z M595.6,313.4c0.8,0,1.4-0.2,1.8-0.6c0.5-0.4,0.7-1,0.7-1.8v-0.8l-1.2,0.1c-1,0-1.7,0.2-2.1,0.5
				c-0.4,0.3-0.7,0.7-0.7,1.3c0,0.4,0.1,0.8,0.4,1S595.1,313.4,595.6,313.4z"/>
		</g>
	</g>
	<g>
		<path class="st20" d="M501,301.9c5.4,0,10.4,1.3,14.8,3.8l15.7-18.9h-31.1v37.4l0,0v-22.3C500.6,301.9,500.8,301.9,501,301.9z"/>
		<path class="st5" d="M515.8,305.6l-15.4,18.5v3h31.1C529.7,317.8,523.8,310,515.8,305.6z"/>
		<path class="st6" d="M515.8,305.6l-15.4,18.5v3h5.6l14.9-18c0,0-1-0.8-2.4-1.8C517.4,306.5,515.8,305.6,515.8,305.6z"/>
		<path class="st3" d="M501,301.9c-0.2,0-0.4,0-0.5,0v22.3l15.4-18.5C511.4,303.3,506.4,301.9,501,301.9z"/>
	</g>
</g>
<g>
	<g>
		<path class="st21" d="M579.8,553.4h-55.2c-1.8,0-3.2-1.4-3.2-3.2v-13.7c0-1.8,1.4-3.2,3.2-3.2h55.2c1.8,0,3.2,1.4,3.2,3.2v13.7
			C583.1,551.9,581.6,553.4,579.8,553.4z"/>
		<circle class="st21" cx="530.3" cy="543.3" r="3.3"/>
		<circle class="st21" cx="541.9" cy="543.3" r="3.3"/>
	</g>
	<g>
		<path class="st21" d="M574.9,548.3h-55.2c-1.8,0-3.2-1.4-3.2-3.2v-13.7c0-1.8,1.4-3.2,3.2-3.2h55.2c1.8,0,3.2,1.4,3.2,3.2v13.7
			C578,546.9,576.6,548.3,574.9,548.3z"/>
		<circle class="st21" cx="525.2" cy="538.3" r="3.3"/>
		<circle class="st21" cx="536.9" cy="538.3" r="3.3"/>
	</g>
	<g>
		<path class="st21" d="M569.9,543.4h-55.2c-1.8,0-3.2-1.4-3.2-3.2v-13.7c0-1.8,1.4-3.2,3.2-3.2h55.2c1.8,0,3.2,1.4,3.2,3.2v13.7
			C573.1,542,571.7,543.4,569.9,543.4z"/>
		<circle class="st21" cx="520.2" cy="533.2" r="3.3"/>
		<circle class="st21" cx="532" cy="533.2" r="3.3"/>
	</g>
</g>
<g>
	<g class="st2">
		<path class="st3" d="M523.3,192.1c0,1.3-0.4,2.4-1.3,3.1s-2.1,1.1-3.8,1.1h-1.3v4.8h-2.1v-12.8h3.7c1.6,0,2.8,0.3,3.6,1
			C522.9,189.9,523.3,190.8,523.3,192.1z M516.9,194.5h1.1c1.1,0,1.9-0.2,2.4-0.6s0.8-1,0.8-1.8c0-0.7-0.2-1.3-0.7-1.7
			s-1.2-0.5-2.1-0.5h-1.5V194.5z"/>
		<path class="st3" d="M525.6,188.8c0-0.4,0.1-0.7,0.3-0.9c0.2-0.2,0.5-0.3,0.9-0.3c0.4,0,0.6,0.1,0.8,0.3c0.2,0.2,0.3,0.5,0.3,0.9
			c0,0.4-0.1,0.6-0.3,0.8c-0.2,0.2-0.5,0.3-0.8,0.3c-0.4,0-0.7-0.1-0.9-0.3C525.7,189.4,525.6,189.1,525.6,188.8z M527.7,201.1h-2.1
			v-9.7h2.1V201.1z"/>
		<path class="st3" d="M535.6,201.3c-1.2,0-2.2-0.4-2.9-1.3h-0.1c0.1,0.8,0.1,1.3,0.1,1.5v4h-2.1v-14h1.7c0,0.2,0.1,0.6,0.3,1.3h0.1
			c0.6-1,1.6-1.5,2.9-1.5c1.2,0,2.2,0.4,2.8,1.3c0.7,0.9,1,2.1,1,3.7s-0.3,2.8-1,3.7C537.8,200.8,536.8,201.3,535.6,201.3z
			 M535.1,192.9c-0.8,0-1.4,0.2-1.8,0.7c-0.4,0.5-0.6,1.2-0.6,2.3v0.3c0,1.2,0.2,2,0.6,2.6s1,0.8,1.8,0.8c0.7,0,1.3-0.3,1.7-0.9
			s0.6-1.4,0.6-2.5c0-1.1-0.2-1.9-0.6-2.5S535.9,192.9,535.1,192.9z"/>
		<path class="st3" d="M546.2,201.3c-1.5,0-2.7-0.4-3.5-1.3c-0.9-0.9-1.3-2.1-1.3-3.6c0-1.6,0.4-2.8,1.2-3.7s1.9-1.4,3.3-1.4
			c1.3,0,2.3,0.4,3,1.2s1.1,1.9,1.1,3.2v1.1h-6.5c0,0.9,0.3,1.7,0.8,2.2s1.2,0.8,2,0.8c0.6,0,1.1-0.1,1.6-0.2s1-0.3,1.6-0.5v1.7
			c-0.5,0.2-1,0.4-1.5,0.5S546.8,201.3,546.2,201.3z M545.8,192.8c-0.7,0-1.2,0.2-1.6,0.6c-0.4,0.4-0.6,1-0.7,1.8h4.4
			c0-0.8-0.2-1.4-0.6-1.8S546.4,192.8,545.8,192.8z"/>
		<path class="st3" d="M554.3,201.1h-2.1v-13.7h2.1V201.1z"/>
		<path class="st3" d="M557.2,188.8c0-0.4,0.1-0.7,0.3-0.9c0.2-0.2,0.5-0.3,0.9-0.3c0.4,0,0.6,0.1,0.8,0.3c0.2,0.2,0.3,0.5,0.3,0.9
			c0,0.4-0.1,0.6-0.3,0.8c-0.2,0.2-0.5,0.3-0.8,0.3c-0.4,0-0.7-0.1-0.9-0.3C557.3,189.4,557.2,189.1,557.2,188.8z M559.4,201.1h-2.1
			v-9.7h2.1V201.1z"/>
		<path class="st3" d="M570.9,201.1h-2.1v-6c0-0.8-0.2-1.3-0.5-1.7c-0.3-0.4-0.8-0.6-1.4-0.6c-0.9,0-1.5,0.3-1.9,0.8
			s-0.6,1.4-0.6,2.6v4.8h-2.1v-9.7h1.6l0.3,1.3h0.1c0.3-0.5,0.7-0.8,1.2-1.1s1.1-0.4,1.8-0.4c2.3,0,3.5,1.2,3.5,3.6V201.1z"/>
		<path class="st3" d="M578,201.3c-1.5,0-2.7-0.4-3.5-1.3c-0.9-0.9-1.3-2.1-1.3-3.6c0-1.6,0.4-2.8,1.2-3.7s1.9-1.4,3.3-1.4
			c1.3,0,2.3,0.4,3,1.2s1.1,1.9,1.1,3.2v1.1h-6.5c0,0.9,0.3,1.7,0.8,2.2s1.2,0.8,2,0.8c0.6,0,1.1-0.1,1.6-0.2s1-0.3,1.6-0.5v1.7
			c-0.5,0.2-1,0.4-1.5,0.5S578.7,201.3,578,201.3z M577.6,192.8c-0.7,0-1.2,0.2-1.6,0.6c-0.4,0.4-0.6,1-0.7,1.8h4.4
			c0-0.8-0.2-1.4-0.6-1.8S578.3,192.8,577.6,192.8z"/>
		<path class="st3" d="M488,222.7l-3.7-10.7h-0.1c0.1,1.6,0.1,3.1,0.1,4.5v6.2h-1.9v-12.8h3l3.6,10.2h0.1l3.7-10.2h3v12.8h-2v-6.4
			c0-0.6,0-1.5,0-2.5c0-1,0.1-1.6,0.1-1.9h-0.1l-3.9,10.7H488z"/>
		<path class="st3" d="M504.9,222.7l-0.4-1.4h-0.1c-0.5,0.6-0.9,1-1.4,1.2s-1.1,0.3-1.8,0.3c-1,0-1.7-0.3-2.2-0.8
			c-0.5-0.5-0.8-1.2-0.8-2.2c0-1,0.4-1.8,1.1-2.3s1.9-0.8,3.4-0.8l1.7-0.1v-0.5c0-0.6-0.1-1.1-0.4-1.4c-0.3-0.3-0.7-0.5-1.3-0.5
			c-0.5,0-1,0.1-1.4,0.2s-0.9,0.3-1.3,0.5l-0.7-1.5c0.5-0.3,1.1-0.5,1.7-0.6s1.2-0.2,1.8-0.2c1.2,0,2.2,0.3,2.8,0.8s0.9,1.4,0.9,2.5
			v6.5H504.9z M501.9,221.3c0.8,0,1.4-0.2,1.8-0.6c0.5-0.4,0.7-1,0.7-1.8V218l-1.2,0.1c-1,0-1.7,0.2-2.1,0.5
			c-0.4,0.3-0.7,0.7-0.7,1.3c0,0.4,0.1,0.8,0.4,1S501.3,221.3,501.9,221.3z"/>
		<path class="st3" d="M517.8,222.7h-2.1v-6c0-0.8-0.2-1.3-0.5-1.7c-0.3-0.4-0.8-0.6-1.4-0.6c-0.9,0-1.5,0.3-1.9,0.8
			s-0.6,1.4-0.6,2.6v4.8h-2.1V213h1.6l0.3,1.3h0.1c0.3-0.5,0.7-0.8,1.2-1.1s1.1-0.4,1.8-0.4c2.3,0,3.5,1.2,3.5,3.6V222.7z"/>
		<path class="st3" d="M526.8,222.7l-0.4-1.4h-0.1c-0.5,0.6-0.9,1-1.4,1.2s-1.1,0.3-1.8,0.3c-1,0-1.7-0.3-2.2-0.8
			c-0.5-0.5-0.8-1.2-0.8-2.2c0-1,0.4-1.8,1.1-2.3s1.9-0.8,3.4-0.8l1.7-0.1v-0.5c0-0.6-0.1-1.1-0.4-1.4c-0.3-0.3-0.7-0.5-1.3-0.5
			c-0.5,0-1,0.1-1.4,0.2s-0.9,0.3-1.3,0.5l-0.7-1.5c0.5-0.3,1.1-0.5,1.7-0.6s1.2-0.2,1.8-0.2c1.2,0,2.2,0.3,2.8,0.8s0.9,1.4,0.9,2.5
			v6.5H526.8z M523.7,221.3c0.8,0,1.4-0.2,1.8-0.6c0.5-0.4,0.7-1,0.7-1.8V218l-1.2,0.1c-1,0-1.7,0.2-2.1,0.5
			c-0.4,0.3-0.7,0.7-0.7,1.3c0,0.4,0.1,0.8,0.4,1S523.2,221.3,523.7,221.3z"/>
		<path class="st3" d="M539.4,213v1.1l-1.7,0.3c0.2,0.2,0.3,0.5,0.4,0.8s0.1,0.6,0.1,0.9c0,1-0.3,1.8-1,2.4s-1.6,0.9-2.9,0.9
			c-0.3,0-0.6,0-0.8-0.1c-0.4,0.3-0.7,0.6-0.7,1c0,0.2,0.1,0.4,0.3,0.5c0.2,0.1,0.6,0.2,1.1,0.2h1.7c1.1,0,1.9,0.2,2.4,0.7
			s0.8,1.1,0.8,2c0,1.1-0.5,2-1.4,2.5s-2.2,0.9-3.9,0.9c-1.3,0-2.3-0.2-3-0.7s-1-1.1-1-2c0-0.6,0.2-1.1,0.6-1.5
			c0.4-0.4,0.9-0.7,1.6-0.8c-0.3-0.1-0.5-0.3-0.7-0.6s-0.3-0.5-0.3-0.8c0-0.4,0.1-0.7,0.3-0.9s0.5-0.5,0.9-0.7
			c-0.5-0.2-0.9-0.6-1.2-1.1c-0.3-0.5-0.5-1.1-0.5-1.7c0-1.1,0.3-1.9,1-2.5c0.7-0.6,1.6-0.9,2.8-0.9c0.3,0,0.6,0,0.9,0.1
			c0.3,0,0.5,0.1,0.7,0.1H539.4z M531.7,224.2c0,0.4,0.2,0.8,0.6,1c0.4,0.2,1,0.4,1.7,0.4c1.1,0,2-0.2,2.5-0.5s0.8-0.8,0.8-1.3
			c0-0.4-0.2-0.7-0.5-0.9s-0.9-0.3-1.7-0.3h-1.6c-0.6,0-1.1,0.1-1.4,0.4S531.7,223.7,531.7,224.2z M532.6,216.1
			c0,0.6,0.2,1.1,0.5,1.4c0.3,0.3,0.8,0.5,1.3,0.5c1.2,0,1.8-0.6,1.8-1.9c0-0.6-0.1-1.1-0.4-1.5s-0.7-0.5-1.3-0.5
			c-0.6,0-1,0.2-1.4,0.5C532.8,215,532.6,215.5,532.6,216.1z"/>
		<path class="st3" d="M545.4,222.9c-1.5,0-2.7-0.4-3.5-1.3c-0.9-0.9-1.3-2.1-1.3-3.6c0-1.6,0.4-2.8,1.2-3.7s1.9-1.4,3.3-1.4
			c1.3,0,2.3,0.4,3,1.2s1.1,1.9,1.1,3.2v1.1h-6.5c0,0.9,0.3,1.7,0.8,2.2s1.2,0.8,2,0.8c0.6,0,1.1-0.1,1.6-0.2s1-0.3,1.6-0.5v1.7
			c-0.5,0.2-1,0.4-1.5,0.5S546.1,222.9,545.4,222.9z M545,214.4c-0.7,0-1.2,0.2-1.6,0.6c-0.4,0.4-0.6,1-0.7,1.8h4.4
			c0-0.8-0.2-1.4-0.6-1.8S545.7,214.4,545,214.4z"/>
		<path class="st3" d="M559.7,222.7h-2.1v-6c0-0.7-0.1-1.3-0.4-1.7s-0.7-0.5-1.3-0.5c-0.8,0-1.4,0.3-1.8,0.8s-0.6,1.4-0.6,2.6v4.8
			h-2.1V213h1.6l0.3,1.3h0.1c0.3-0.5,0.7-0.8,1.2-1.1s1.1-0.4,1.7-0.4c1.5,0,2.5,0.5,3,1.5h0.1c0.3-0.5,0.7-0.9,1.2-1.1
			s1.1-0.4,1.8-0.4c1.2,0,2,0.3,2.5,0.9c0.5,0.6,0.8,1.5,0.8,2.7v6.3h-2.1v-6c0-0.7-0.1-1.3-0.4-1.7s-0.7-0.5-1.3-0.5
			c-0.8,0-1.4,0.3-1.8,0.8c-0.4,0.5-0.6,1.3-0.6,2.3V222.7z"/>
		<path class="st3" d="M573,222.9c-1.5,0-2.7-0.4-3.5-1.3c-0.9-0.9-1.3-2.1-1.3-3.6c0-1.6,0.4-2.8,1.2-3.7s1.9-1.4,3.3-1.4
			c1.3,0,2.3,0.4,3,1.2s1.1,1.9,1.1,3.2v1.1h-6.5c0,0.9,0.3,1.7,0.8,2.2s1.2,0.8,2,0.8c0.6,0,1.1-0.1,1.6-0.2s1-0.3,1.6-0.5v1.7
			c-0.5,0.2-1,0.4-1.5,0.5S573.7,222.9,573,222.9z M572.6,214.4c-0.7,0-1.2,0.2-1.6,0.6c-0.4,0.4-0.6,1-0.7,1.8h4.4
			c0-0.8-0.2-1.4-0.6-1.8S573.3,214.4,572.6,214.4z"/>
		<path class="st3" d="M587.7,222.7h-2.1v-6c0-0.8-0.2-1.3-0.5-1.7c-0.3-0.4-0.8-0.6-1.4-0.6c-0.9,0-1.5,0.3-1.9,0.8
			s-0.6,1.4-0.6,2.6v4.8h-2.1V213h1.6l0.3,1.3h0.1c0.3-0.5,0.7-0.8,1.2-1.1s1.1-0.4,1.8-0.4c2.3,0,3.5,1.2,3.5,3.6V222.7z"/>
		<path class="st3" d="M594.2,221.2c0.5,0,1-0.1,1.5-0.2v1.6c-0.2,0.1-0.5,0.2-0.9,0.3c-0.4,0.1-0.7,0.1-1.1,0.1c-2,0-2.9-1-2.9-3.1
			v-5.2h-1.3v-0.9l1.4-0.8l0.7-2.1h1.3v2.2h2.8v1.6h-2.8v5.2c0,0.5,0.1,0.9,0.4,1.1S593.8,221.2,594.2,221.2z"/>
		<path class="st3" d="M612.6,209.8v8.3c0,0.9-0.2,1.8-0.6,2.5c-0.4,0.7-1,1.3-1.8,1.6s-1.7,0.6-2.8,0.6c-1.6,0-2.8-0.4-3.7-1.3
			s-1.3-2-1.3-3.5v-8.3h2.1v8.1c0,1.1,0.2,1.8,0.7,2.3s1.2,0.8,2.3,0.8c2,0,3-1,3-3.1v-8.1H612.6z"/>
		<path class="st3" d="M615.9,222.7v-12.8h2.1v12.8H615.9z"/>
	</g>
</g>
<g>
	<circle class="st16" cx="547.1" cy="81.8" r="31"/>
	<g>
		<path class="st22" d="M564.5,81l-0.7-0.2c-3.5-1-8.4-4-10.8-9.2c-9.7,6.7-19.2,8.7-22.9,9.2l-0.7,0.1"/>
		<path class="st22" d="M539.3,91.6c2,2.2,4.6,3.7,7.6,3.7s5.6-1.5,7.6-3.7"/>
		<polyline class="st22" points="538.6,99.5 528.9,99.5 528.9,88.4 		"/>
		<polyline class="st22" points="565.1,88.4 565.1,99.5 555.3,99.5 		"/>
		<path class="st23" d="M529.4,81c0.4-5,2-10.5,5.3-13.9c3.3-3.5,7.7-5.3,12.3-5.3c4.6,0,8.9,1.9,12.3,5.3c3.3,3.4,4.8,8.9,5.3,13.9
			c1.3,0.7,2.2,2.2,2.2,3.8c0,2.1-1.4,3.8-3.3,4.3c-2.5,7.4-8.9,12.7-16.4,12.7c-7.5,0-13.9-5.3-16.4-12.7c-1.9-0.5-3.3-2.2-3.3-4.3
			C527.2,83.2,528.1,81.8,529.4,81"/>
	</g>
</g>
<g>
	<line class="st24" x1="283.7" y1="202.8" x2="408.2" y2="202.8"/>
	<g>
		<line class="st25" x1="290.9" y1="202.8" x2="401" y2="202.8"/>
		<g>
			<polygon class="st24" points="292.3,207.8 283.7,202.8 292.3,197.8 			"/>
		</g>
		<g>
			<polygon class="st24" points="399.5,207.8 408.2,202.8 399.5,197.8 			"/>
		</g>
	</g>
</g>
<g>
	<line class="st24" x1="547.1" y1="112.8" x2="547.1" y2="154.7"/>
	<g>
		<line class="st25" x1="547.1" y1="112.8" x2="547.1" y2="147.5"/>
		<g>
			<polygon class="st24" points="542.1,146 547.1,154.7 552,146 			"/>
		</g>
	</g>
</g>
<g>
	<line class="st24" x1="283.7" y1="360.3" x2="408.2" y2="360.3"/>
	<g>
		<line class="st25" x1="290.9" y1="360.3" x2="401" y2="360.3"/>
		<g>
			<polygon class="st24" points="292.3,365.3 283.7,360.3 292.3,355.3 			"/>
		</g>
		<g>
			<polygon class="st24" points="399.5,365.3 408.2,360.3 399.5,355.3 			"/>
		</g>
	</g>
</g>
<g>
	<line class="st24" x1="283.7" y1="522.8" x2="408.2" y2="522.8"/>
	<g>
		<line class="st25" x1="290.9" y1="522.8" x2="401" y2="522.8"/>
		<g>
			<polygon class="st24" points="292.3,527.8 283.7,522.8 292.3,517.8 			"/>
		</g>
		<g>
			<polygon class="st24" points="399.5,527.8 408.2,522.8 399.5,517.8 			"/>
		</g>
	</g>
</g>
<rect class="st26" width="750" height="646"/>
</svg>
